<svg width="44" height="44" viewBox="0 0 44 44" fill="none" xmlns="http://www.w3.org/2000/svg">
<path fill-rule="evenodd" clip-rule="evenodd" d="M43.7581 3.40689V40.2683C43.7581 42.147 42.5395 43.6752 41.0421 43.6752H2.71651C1.21866 43.6752 0 42.147 0 40.2683V3.40689C0 1.52823 1.21866 0 2.71651 0H41.0421C42.5395 0 43.7581 1.52823 43.7581 3.40689ZM31.3496 6.23994C31.3496 4.98166 32.1644 3.96211 33.17 3.96211C34.176 3.96211 34.9908 4.98221 34.9908 6.23994C34.9908 7.49768 34.176 8.51723 33.17 8.51723C32.1644 8.51723 31.3496 7.49768 31.3496 6.23994ZM27.9216 8.51777C28.9268 8.51777 29.7411 7.49823 29.7411 6.24049C29.7411 4.98221 28.9263 3.96211 27.9216 3.96266C26.9156 3.96266 26.1009 4.98221 26.1009 6.24049C26.1009 7.49823 26.9156 8.51777 27.9216 8.51777ZM2.40582 11.5102H41.3519V40.2683C41.3519 40.4868 41.2127 40.6648 41.0416 40.6648H2.71607C2.54497 40.6648 2.40582 40.4863 2.40582 40.2683V11.5102ZM41.3523 3.40689C41.3523 3.18842 41.2132 3.01046 41.0421 3.01046H2.71651C2.54541 3.01046 2.40626 3.18787 2.40626 3.40689V9.52856H41.3528V3.40689H41.3523ZM36.5989 6.23994C36.5989 4.98166 37.4141 3.96211 38.4192 3.96211C39.4243 3.96211 40.2395 4.98221 40.2395 6.23994C40.2395 7.49768 39.4243 8.51723 38.4192 8.51723C37.4141 8.51723 36.5989 7.49768 36.5989 6.23994Z" fill="white"/>
</svg>
