<svg width="254" height="44" viewBox="0 0 254 44" fill="none" xmlns="http://www.w3.org/2000/svg">
<path fill-rule="evenodd" clip-rule="evenodd" d="M81.1575 9.46093C80.6792 8.96737 80.0206 8.69965 79.3405 8.72227C78.6507 8.71308 77.9875 8.99281 77.5056 9.49612C77.0238 9.99943 76.7655 10.6822 76.7912 11.3851C76.7681 12.0704 77.0271 12.7343 77.5056 13.2162C77.984 13.6981 78.6382 13.9541 79.31 13.9223C79.9962 13.957 80.6648 13.6942 81.1506 13.1989C81.6364 12.7036 81.8941 12.0219 81.86 11.3223C81.8904 10.6291 81.6358 9.95449 81.1575 9.46093ZM74.1775 10.3393H59V33.4887H63.3541V24.3598H74.1775V20.2056H63.3541V14.5282H74.1775V10.3393ZM81.4867 16.3648V33.4887H77.1943V16.3648H81.4867ZM91.8433 20.3602C92.6009 20.3749 93.3328 20.6423 93.9272 21.1214L95.7908 17.0943C94.9458 16.5125 93.9488 16.203 92.9292 16.2059C91.1699 16.087 89.5416 17.1562 88.92 18.8384V16.3648H84.8457V33.4887H89.1063V24.0074C89.1063 21.502 90.1015 20.3602 91.8433 20.3602ZM95.698 25.0214C95.6328 22.6459 96.517 20.3454 98.1476 18.6475C99.7783 16.9497 102.015 16.0001 104.346 16.0167C109.384 16.0167 112.962 19.6632 112.962 24.7376V26.5431H99.8985C100.365 28.6997 102.014 30.1268 104.533 30.1268C106.289 30.1828 107.916 29.1921 108.7 27.5896L112.277 29.7779C110.506 32.4415 107.986 33.8368 104.408 33.8368C98.9656 33.8376 95.7002 30.1275 95.7002 25.0221L95.698 25.0214ZM99.961 23.0866H99.9587L99.9608 23.0873L99.961 23.0866ZM99.961 23.0866H108.796C108.33 20.8989 106.588 19.6921 104.317 19.6921C102.256 19.6166 100.431 21.039 99.961 23.0866ZM114.017 16.3641H117.034V15.5112C117.034 10.8499 118.962 8.91511 123.192 8.91511H124.684V12.6866H123.474C121.484 12.6866 121.048 13.3842 121.048 15.5083V16.3648H124.687V20.2973H121.145V33.4887H117.037V20.2973H114.019L114.017 16.3641ZM128.022 18.5699C126.367 20.2504 125.454 22.5449 125.492 24.9261L125.495 24.9268C125.419 27.3186 126.32 29.6355 127.983 31.3247C129.645 33.014 131.92 33.9242 134.266 33.8383C137.388 33.8383 140.273 32.1399 141.835 29.3829C143.396 26.6259 143.396 23.2291 141.835 20.4721C140.273 17.7151 137.388 16.0167 134.266 16.0167C131.931 15.9677 129.677 16.8894 128.022 18.5699ZM138.865 24.9261C138.865 22.3334 136.804 20.2316 134.261 20.2316C131.718 20.2316 129.657 22.3334 129.657 24.9261C129.657 27.5187 131.718 29.6205 134.261 29.6205C136.804 29.6205 138.865 27.5187 138.865 24.9261ZM142.753 16.3641L148.818 24.7361L142.384 33.4887H147.391L151.279 27.9074L155.291 33.4887H160.298L153.829 24.7051L159.984 16.3641H155.039L151.369 21.6284L147.792 16.3641H142.753Z" fill="#20123A"/>
<path fill-rule="evenodd" clip-rule="evenodd" d="M214.259 10.3009C213.872 9.91198 213.342 9.70119 212.795 9.71852C212.254 9.71328 211.734 9.92902 211.355 10.3163C210.976 10.7035 210.769 11.229 210.783 11.7723C210.769 12.5097 211.152 13.197 211.786 13.5697C212.419 13.9425 213.203 13.9425 213.836 13.5697C214.469 13.197 214.853 12.5097 214.839 11.7723C214.856 11.2224 214.646 10.6899 214.259 10.3009ZM173.767 11.012H171L179.994 34.0794H182.635L191.629 11.012H188.83L181.314 30.6387L173.767 11.012ZM199.57 16.6869C194.699 16.6869 190.75 20.6555 190.75 25.551C190.75 30.4464 194.699 34.415 199.57 34.415C204.442 34.415 208.391 30.4464 208.391 25.551C208.391 20.6555 204.442 16.6869 199.57 16.6869ZM205.781 25.551C205.854 23.2732 204.687 21.1363 202.735 19.9757C200.783 18.8151 198.358 18.8151 196.406 19.9757C194.454 21.1363 193.287 23.2732 193.36 25.551C193.296 27.8231 194.465 29.9508 196.413 31.1059C198.361 32.261 200.78 32.261 202.728 31.1059C204.676 29.9508 205.846 27.8231 205.781 25.551ZM211.508 17.0182H214.119V34.083H211.509L211.508 17.0182ZM219.791 19.2234C218.12 20.897 217.195 23.1801 217.229 25.551C217.208 27.9243 218.141 30.2056 219.818 31.8775C221.494 33.5493 223.771 34.4701 226.132 34.4308C229.678 34.5123 232.901 32.3698 234.213 29.0585L231.82 28.0431C230.931 30.4123 228.679 31.9844 226.16 31.9955C224.464 31.9969 222.838 31.3165 221.644 30.1058C220.451 28.8952 219.789 27.255 219.806 25.551C219.767 23.8568 220.408 22.2182 221.586 21.0052C222.763 19.7921 224.378 19.1069 226.064 19.1043C228.562 19.0544 230.829 20.5649 231.756 22.8964L234.116 21.8537C232.741 18.6477 229.57 16.5985 226.097 16.6711C223.738 16.6288 221.462 17.5497 219.791 19.2234ZM236.193 25.6142C236.14 23.2322 237.057 20.9318 238.73 19.244C240.404 17.5562 242.689 16.6271 245.06 16.6711C247.376 16.5941 249.62 17.4848 251.259 19.1315C252.898 20.7782 253.784 23.0336 253.708 25.3612V26.534H238.708C239.085 29.7886 241.569 32.0954 245.154 32.0954C247.528 32.2139 249.752 30.9297 250.846 28.8091L253.047 30.1026C251.416 32.902 248.379 34.567 245.153 34.4308C239.715 34.4308 236.193 30.6071 236.193 25.6142ZM251.066 24.2553H238.771C239.29 21.1811 241.957 18.943 245.06 18.9778C248.154 18.812 250.817 21.1517 251.066 24.2553Z" fill="#20123A"/>
<path d="M40.3878 24.9556H21.8913C21.3662 24.9556 20.8994 25.4214 20.8994 25.9454V28.9151C20.8994 33.2821 24.4587 36.7758 28.7764 36.7758H38.9874C42.2549 36.7758 44.8806 34.1556 44.8806 30.8948V28.3328C44.939 26.8189 43.4802 24.9556 40.3878 24.9556Z" fill="#008787"/>
<g opacity="0.9">
<path d="M40.3878 24.9556H21.8913C21.3662 24.9556 20.8994 25.4214 20.8994 25.9454V28.9151C20.8994 33.2821 24.4587 36.7758 28.7764 36.7758H38.9874C42.2549 36.7758 44.8806 34.1556 44.8806 30.8948V28.3328C44.939 26.8189 43.4802 24.9556 40.3878 24.9556Z" fill="url(#paint0_linear)"/>
</g>
<path d="M11.991 31.6556C11.8752 31.8317 11.3538 32.8297 10.485 32.8297C9.61612 32.8297 9.15273 31.773 9.0948 31.7143L4.92427 21.7928L3.82372 24.3172C3.12863 26.1958 3.12863 28.1919 3.76579 30.0705L5.15597 33.2994C5.73521 34.7083 7.47293 37.0566 10.485 37.0566C13.4391 37.0566 15.2927 34.767 15.9298 33.4168V33.3581L18.4785 27.3113L16.1615 21.7341L11.991 31.6556Z" fill="url(#paint1_linear)"/>
<path d="M11.991 31.6556C11.8752 31.8317 11.3538 32.8297 10.485 32.8297C9.61612 32.8297 9.15273 31.773 9.0948 31.7143L4.92427 21.7928L3.82372 24.3172C3.12863 26.1958 3.12863 28.1919 3.76579 30.0705L5.15597 33.2994C5.73521 34.7083 7.47293 37.0566 10.485 37.0566C13.4391 37.0566 15.2927 34.767 15.9298 33.4168V33.3581L18.4785 27.3113L16.1615 21.7341L11.991 31.6556Z" fill="url(#paint2_radial)"/>
<path d="M43.0953 21.0295L39.9674 13.6324C40.5466 15.5111 40.5466 17.5071 39.8516 19.327L38.751 21.9101V21.9101L35.3914 29.8942L33.9433 33.3579L35.3914 29.9529L32.669 36.352C32.5531 36.5281 31.5105 38.5241 29.6569 38.5241C27.8033 38.5241 26.9345 36.5281 26.8766 36.4107L20.7945 21.9101V21.9101L18.4776 16.333V16.333L15.9289 10.2275C15.3497 8.81849 13.612 6.47021 10.5999 6.47021C7.64578 6.47021 5.79221 8.75978 5.15505 10.11V10.1687L0.579046 20.9708C0.347349 21.4992 0.347349 22.1449 0.579046 22.6733L3.70694 30.1291C3.06978 28.2504 3.1277 26.1957 3.76487 24.3758L4.86543 21.8514V21.8514L9.03596 11.9887C9.15181 11.8125 9.67312 10.8145 10.542 10.8145C11.4108 10.8145 11.8742 11.8712 11.9322 11.9299L16.1027 21.8514V21.8514L18.4197 27.4285V27.4285L22.9377 38.0545C23.6328 39.8157 25.8919 42.8684 29.6569 42.8684C33.422 42.8684 35.7389 39.9331 36.5499 38.1719V38.1132L43.0953 22.7907C43.327 22.2036 43.327 21.6166 43.0953 21.0295Z" fill="url(#paint3_linear)"/>
<path d="M43.0953 21.0295L39.9674 13.6324C40.5466 15.5111 40.5466 17.5071 39.8516 19.327L38.751 21.9101V21.9101L35.3914 29.8942L33.9433 33.3579L35.3914 29.9529L32.669 36.352C32.5531 36.5281 31.5105 38.5241 29.6569 38.5241C27.8033 38.5241 26.9345 36.5281 26.8766 36.4107L20.7945 21.9101V21.9101L18.4776 16.333V16.333L15.9289 10.2275C15.3497 8.81849 13.612 6.47021 10.5999 6.47021C7.64578 6.47021 5.79221 8.75978 5.15505 10.11V10.1687L0.579046 20.9708C0.347349 21.4992 0.347349 22.1449 0.579046 22.6733L3.70694 30.1291C3.06978 28.2504 3.1277 26.1957 3.76487 24.3758L4.86543 21.8514V21.8514L9.03596 11.9887C9.15181 11.8125 9.67312 10.8145 10.542 10.8145C11.4108 10.8145 11.8742 11.8712 11.9322 11.9299L16.1027 21.8514V21.8514L18.4197 27.4285V27.4285L22.9377 38.0545C23.6328 39.8157 25.8919 42.8684 29.6569 42.8684C33.422 42.8684 35.7389 39.9331 36.5499 38.1719V38.1132L43.0953 22.7907C43.327 22.2036 43.327 21.6166 43.0953 21.0295Z" fill="url(#paint4_linear)"/>
<path d="M26.8765 7.46836C26.9924 7.29224 28.035 5.29621 29.8886 5.29621C31.7421 5.29621 32.611 7.29224 32.6689 7.40965L38.751 21.8515L39.8515 19.2684C40.5466 17.5072 40.5466 15.5112 39.9674 13.6326L36.6078 5.76586C35.9127 4.00466 33.6536 0.951904 29.8886 0.951904C26.1235 0.951904 23.8066 3.88724 22.9956 5.64845V5.70716L18.4775 16.3331L20.7945 21.9102L26.8765 7.46836Z" fill="url(#paint5_linear)"/>
<path d="M26.8765 7.46836C26.9924 7.29224 28.035 5.29621 29.8886 5.29621C31.7421 5.29621 32.611 7.29224 32.6689 7.40965L38.751 21.8515L39.8515 19.2684C40.5466 17.5072 40.5466 15.5112 39.9674 13.6326L36.6078 5.76586C35.9127 4.00466 33.6536 0.951904 29.8886 0.951904C26.1235 0.951904 23.8066 3.88724 22.9956 5.64845V5.70716L18.4775 16.3331L20.7945 21.9102L26.8765 7.46836Z" fill="url(#paint6_radial)"/>
<path d="M44.1301 28.7631H27.865C23.5238 28.7631 20.0508 32.315 20.0508 36.6238V39.5934C20.0508 40.1175 20.5138 40.5833 21.0348 40.5833H37.2999C41.6411 40.5833 45.1141 37.0314 45.1141 32.7226V27.7732C45.1141 28.3555 44.7089 28.7631 44.1301 28.7631Z" fill="url(#paint7_linear)"/>
<path fill-rule="evenodd" clip-rule="evenodd" d="M25.4104 32.2847H27.3769C28.4758 32.2847 29.0542 32.7859 29.0542 33.51C29.0542 34.0669 28.6493 34.4011 28.1288 34.5125V34.5682C28.7072 34.5682 29.2277 35.0138 29.2277 35.7378C29.2277 36.5176 28.6493 37.0745 27.4926 37.0745H25.3525V32.2847H25.4104ZM27.2612 34.2897C27.6661 34.2897 28.0131 34.0669 28.0131 33.6771C28.0131 33.3429 27.7239 33.1201 27.2612 33.1201H26.4515V34.2897H27.2612ZM28.1866 35.6264C28.1866 36.0163 27.8974 36.2391 27.319 36.2391H26.5093V34.9581H27.3769C27.8974 34.9581 28.1866 35.2366 28.1866 35.6264Z" fill="#20123A"/>
<path fill-rule="evenodd" clip-rule="evenodd" d="M31.541 33.4543C30.4421 33.4543 29.748 34.1784 29.748 35.2923C29.748 36.4619 30.4421 37.186 31.5989 37.2417C32.5243 37.2417 33.1027 36.7961 33.2762 36.1278L32.2929 36.0721C32.2351 36.2949 31.9459 36.4619 31.5989 36.4619C31.0783 36.4619 30.7313 36.1278 30.7313 35.5708H33.2762V35.2923C33.2762 34.067 32.5243 33.4543 31.541 33.4543ZM31.5989 34.2341C32.0616 34.2341 32.3508 34.5126 32.3508 34.9581H30.7891C30.7891 34.5683 31.1362 34.2341 31.5989 34.2341Z" fill="#20123A"/>
<path d="M35.995 34.2341H35.3009V35.9606C35.3009 36.2391 35.4166 36.2948 35.6479 36.2948C35.7636 36.2948 35.8793 36.2948 35.8793 36.2391L36.0528 36.9632C35.9371 37.0189 35.7636 37.0189 35.4744 37.0746C34.7225 37.1303 34.202 36.7404 34.202 36.072V34.2341H33.7393V33.51H34.2598V32.6746H35.3009V33.51H35.995V34.2341Z" fill="#20123A"/>
<path fill-rule="evenodd" clip-rule="evenodd" d="M37.9037 34.9581C37.1518 35.0138 36.5156 35.2923 36.5156 36.0721C36.5156 36.7961 37.0362 37.186 37.6724 37.186C38.2508 37.186 38.5978 36.9632 38.7713 36.629H38.8292V37.1303H39.8124V34.6797C39.8124 33.7885 39.0605 33.4543 38.2508 33.4543C37.3832 33.4543 36.747 33.8442 36.6313 34.5126L37.6146 34.5683C37.6724 34.3455 37.9037 34.1784 38.2508 34.1784C38.6556 34.1784 38.8292 34.3455 38.8292 34.624C38.8292 34.8468 38.54 34.9024 37.9037 34.9581ZM38.8292 35.4037V35.7936C38.8292 36.1835 38.4821 36.4619 38.0773 36.4062C37.7881 36.4062 37.5567 36.2949 37.5567 36.0164C37.5567 35.7379 37.7881 35.6265 38.1351 35.5708C38.2122 35.546 38.335 35.5213 38.4579 35.4965C38.6114 35.4656 38.7649 35.4347 38.8292 35.4037Z" fill="#20123A"/>
<defs>
<linearGradient id="paint0_linear" x1="46.046" y1="34.739" x2="44.1895" y2="27.5186" gradientUnits="userSpaceOnUse">
<stop stop-color="#054096" stop-opacity="0.5"/>
<stop offset="0.0999519" stop-color="#173BA1" stop-opacity="0.4422"/>
<stop offset="0.2949" stop-color="#3434B3" stop-opacity="0.3294"/>
<stop offset="0.4888" stop-color="#482EC1" stop-opacity="0.2171"/>
<stop offset="0.6797" stop-color="#552BC8" stop-opacity="0.1066"/>
<stop offset="0.864" stop-color="#592ACB" stop-opacity="0.01"/>
</linearGradient>
<linearGradient id="paint1_linear" x1="12.2507" y1="49.4757" x2="47.926" y2="33.3297" gradientUnits="userSpaceOnUse">
<stop stop-color="#0090ED"/>
<stop offset="0.6822" stop-color="#9059FF"/>
<stop offset="1" stop-color="#B833E1"/>
</linearGradient>
<radialGradient id="paint2_radial" cx="0" cy="0" r="1" gradientUnits="userSpaceOnUse" gradientTransform="translate(10.3912 33.8979) scale(10.3677 10.4625)">
<stop offset="0.5051" stop-color="#592ACB" stop-opacity="0.01"/>
<stop offset="0.5752" stop-color="#502CC5" stop-opacity="0.0955733"/>
<stop offset="0.6884" stop-color="#3833B6" stop-opacity="0.25"/>
<stop offset="0.83" stop-color="#123D9E" stop-opacity="0.4429"/>
<stop offset="0.8719" stop-color="#054096" stop-opacity="0.5"/>
</radialGradient>
<linearGradient id="paint3_linear" x1="13.8959" y1="47.0373" x2="46.7768" y2="26.3686" gradientUnits="userSpaceOnUse">
<stop offset="0.0252769" stop-color="#E31587"/>
<stop offset="0.1355" stop-color="#E51982"/>
<stop offset="0.2648" stop-color="#ED2574"/>
<stop offset="0.4033" stop-color="#F83A5C"/>
<stop offset="0.4393" stop-color="#FC4055"/>
<stop offset="0.5409" stop-color="#FD5650"/>
<stop offset="0.7251" stop-color="#FE7947"/>
<stop offset="0.8765" stop-color="#FF8E42"/>
<stop offset="0.9754" stop-color="#FF9640"/>
</linearGradient>
<linearGradient id="paint4_linear" x1="13.8959" y1="47.0373" x2="46.7768" y2="26.3686" gradientUnits="userSpaceOnUse">
<stop offset="0.3712" stop-color="#FFF36E" stop-opacity="0.01"/>
<stop offset="0.9405" stop-color="#FFF36E" stop-opacity="0.8"/>
</linearGradient>
<linearGradient id="paint5_linear" x1="9.75358" y1="42.5721" x2="45.1021" y2="25.8345" gradientUnits="userSpaceOnUse">
<stop stop-color="#0090ED"/>
<stop offset="0.6822" stop-color="#9059FF"/>
<stop offset="1" stop-color="#B833E1"/>
</linearGradient>
<radialGradient id="paint6_radial" cx="0" cy="0" r="1" gradientUnits="userSpaceOnUse" gradientTransform="translate(29.351 11.2396) scale(11.9417 11.4226)">
<stop offset="0.3906" stop-color="#722291" stop-opacity="0.01"/>
<stop offset="0.8883" stop-color="#722291" stop-opacity="0.5"/>
</radialGradient>
<linearGradient id="paint7_linear" x1="13.5687" y1="35.7079" x2="24.026" y2="52.7468" gradientUnits="userSpaceOnUse">
<stop offset="0.00102714" stop-color="#54FFBD"/>
<stop offset="1" stop-color="#00DDFF"/>
</linearGradient>
</defs>
</svg>
