<svg width="44" height="44" viewBox="0 0 44 44" fill="none" xmlns="http://www.w3.org/2000/svg">
<path d="M43.6116 1.3105C43.6069 1.26198 43.6217 1.21623 43.6119 1.16756C43.6017 1.1176 43.5698 1.07998 43.5548 1.03233C43.5366 0.973794 43.5301 0.91235 43.5048 0.857153C43.4873 0.818806 43.4578 0.789609 43.4369 0.75286C43.3919 0.673115 43.3422 0.602666 43.284 0.533669C43.2383 0.479489 43.1956 0.427342 43.1424 0.380134C43.1259 0.365463 43.1193 0.343094 43.1021 0.329149C43.0868 0.316802 43.0661 0.315205 43.0503 0.303584C42.9871 0.256086 42.9198 0.221951 42.8496 0.185201C42.7746 0.145691 42.6994 0.115333 42.6173 0.0890417C42.6166 0.0887512 42.616 0.0884607 42.6153 0.0881702C42.5782 0.0764045 42.547 0.0530183 42.5089 0.044303C42.4444 0.0291964 42.3769 0.0339898 42.3097 0.0277438C42.2615 0.0230956 42.2197 0 42.1702 0C42.12 0 42.0777 0.0233862 42.0287 0.0281796C41.9787 0.0331183 41.9318 0.0183022 41.8815 0.0283248L12.4742 5.83855C12.4176 5.84988 12.3716 5.88154 12.3177 5.89883C12.2438 5.92251 12.1739 5.94618 12.1057 5.98046C12.0598 6.00356 12.0121 6.02041 11.9693 6.04772C11.9202 6.07895 11.884 6.12136 11.8393 6.15782C11.7852 6.20198 11.7314 6.24105 11.6842 6.29218C11.649 6.33024 11.6176 6.36844 11.5868 6.40984C11.5468 6.46387 11.5196 6.52198 11.4873 6.58081C11.4588 6.63266 11.4227 6.67711 11.4007 6.73245C11.3816 6.7801 11.3744 6.83079 11.3605 6.88061C11.3404 6.95179 11.3308 7.02224 11.322 7.09661C11.3151 7.15311 11.2925 7.20468 11.2925 7.26278V15.9781V32.9538C10.6134 32.7191 9.84664 32.589 9.00942 32.589C7.75446 32.589 6.41907 32.8712 5.1497 33.4031C3.45246 34.1152 2.01944 35.2117 1.11193 36.4913C0.0736991 37.9551 -0.187585 39.5708 0.392475 40.9213C1.10751 42.5837 2.94547 43.5767 5.31188 43.5767C6.56684 43.5767 7.90076 43.2958 9.17013 42.7638C12.3952 41.4112 14.3671 38.8254 14.2017 36.4679C14.2078 36.4149 14.2332 36.3687 14.2332 36.3139V17.1688L40.6998 11.9396V28.596C40.0208 28.3613 39.254 28.2312 38.4168 28.2312C37.1618 28.2312 35.8264 28.5134 34.5571 29.0453C32.8598 29.7574 31.4268 30.8539 30.5193 32.1334C29.4811 33.5973 29.2198 35.213 29.7998 36.5635C30.5149 38.226 32.3528 39.219 34.7192 39.219C35.9742 39.219 37.3081 38.9381 38.5775 38.4062C41.8026 37.0535 43.7745 34.4677 43.6091 32.1102C43.6151 32.0572 43.6405 32.011 43.6405 31.9562V10.1679V1.45256C43.6405 1.40215 43.6166 1.35959 43.6116 1.3105Z" fill="white"/>
</svg>
