<svg width="44" height="44" viewBox="0 0 44 44" fill="none" xmlns="http://www.w3.org/2000/svg">
<path fill-rule="evenodd" clip-rule="evenodd" d="M12.3346 16.0769C12.3443 7.49402 19.2491 0.538639 27.7696 0.528847C36.2941 0.528847 43.2046 7.48996 43.2046 16.0769C43.2046 24.6639 36.2941 31.625 27.7696 31.625C24.4449 31.6144 21.2143 30.5123 18.5674 28.4858L4.33779 42.8196C3.7881 43.4139 2.96024 43.6585 2.17898 43.4575C1.39773 43.2565 0.787679 42.642 0.588159 41.855C0.38864 41.068 0.631473 40.2341 1.22139 39.6804L15.451 25.3465C13.4392 22.6802 12.3452 19.4259 12.3346 16.0769ZM16.7446 16.0769C16.7446 22.2105 21.6807 27.1827 27.7696 27.1827C33.8552 27.1745 38.7865 22.2071 38.7946 16.0769C38.7946 9.94338 33.8585 4.97115 27.7696 4.97115C21.6807 4.97115 16.7446 9.94338 16.7446 16.0769Z" fill="white" fill-opacity="0.9"/>
</svg>
