<svg xmlns="http://www.w3.org/2000/svg" height="173.333" width="173.253"><defs><clipPath id="a" clipPathUnits="userSpaceOnUse"><path d="M0 0h1299v1300H0z"/></clipPath><clipPath id="b" clipPathUnits="userSpaceOnUse"><path d="M649.672 1300C290.871 1300-.004 1008.98-.004 650c0-329.602 245.211-601.871 563.059-644.238v130.976c0 36.934-23.282 70.133-58.274 81.871-183.39 61.629-314.582 237.016-309.754 442.352 5.883 249.992 209.418 446.539 459.336 444.019 249.004-2.52 450.087-205.257 450.087-454.98 0-5.691-.14-11.355-.35-16.992-.05-1.262-.09-2.528-.14-3.797-.24-5.234-.56-10.461-.97-15.656-.13-1.653-.29-3.301-.44-4.942-.32-3.633-.69-7.226-1.1-10.82-.46-4.094-.99-8.145-1.56-12.188-.25-1.843-.5-3.691-.78-5.527C1043.43 213.121 565.727 6.871 563.109 5.75A655.875 655.875 0 01649.672 0c358.808 0 649.678 291.012 649.678 650 0 358.98-290.87 650-649.678 650" clip-rule="evenodd"/></clipPath></defs><path d="M86.623 0C38.783 0-.001 38.803-.001 86.667c0 43.947 32.695 80.25 75.075 85.898v-17.463c0-4.925-3.104-9.351-7.77-10.917-24.452-8.217-41.944-31.602-41.3-58.98.784-33.332 27.922-59.538 61.244-59.202 33.2.336 60.012 27.367 60.012 60.664 0 .758-.019 1.514-.047 2.265l-.018.507a63.551 63.551 0 01-.13 2.087c-.017.22-.038.44-.058.659a56.237 56.237 0 01-.355 3.068c-.033.245-.067.492-.104.737-7.424 48.927-71.118 76.427-71.467 76.577a87.45 87.45 0 0011.542.766c47.841 0 86.624-38.801 86.624-86.666C173.247 38.803 134.464 0 86.623 0" fill="#5fcaf4" fill-rule="evenodd"/><g clip-path="url(#a)" transform="matrix(.13333 0 0 -.13333 0 173.333)"><g clip-path="url(#b)"><path d="M-98.64-98.64h1496.63v1497.28H-98.64V-98.64" fill="#5fcaf4"/></g></g></svg>