<svg xmlns="http://www.w3.org/2000/svg" viewBox="0 0 16 16"><path fill="#fff" d="M13.2 6.294c0-.3-.2-.5-.5-.5s-.5.2-.5.5c0 3-1.7 4.9-4.4 4.9s-4.4-1.9-4.4-4.9c0-.3-.2-.5-.5-.5s-.5.2-.5.5c0 3.4 2 5.7 4.9 6v3.1c0 .3.2.5.5.5s.5-.2.5-.5v-3-.1c3-.3 4.9-2.6 4.9-6"/><g><path fill="#fff" d="M7.8 1.194c-1.3 0-2.2 1-2.2 2.2v3.4c0 1.2 1 2.2 2.2 2.2 1.2 0 2.2-1 2.2-2.2v-3.4c0-1.2-1-2.2-2.2-2.2m0 8.9c-1.9 0-3.4-1.5-3.4-3.3v-3.4c0-1.8 1.5-3.3 3.3-3.3 1.8 0 3.3 1.5 3.3 3.3v3.4c.1 1.8-1.4 3.3-3.2 3.3"/></g></svg>