<svg xmlns="http://www.w3.org/2000/svg" viewBox="0 0 16 16"><path d="M15 7h-2.1c-.1-.6-.4-1.2-.7-1.8l1.5-1.5c.4-.4.4-1 0-1.4s-1-.4-1.4 0l-1.5 1.5c-.6-.3-1.2-.6-1.8-.7V1c0-.6-.4-1-1-1S7 .4 7 1v2.1c-.6.1-1.2.4-1.8.7L3.8 2.3c-.4-.3-1.1-.3-1.5 0s-.4 1 0 1.4l1.5 1.5c-.3.6-.6 1.2-.7 1.8H1c-.6 0-1 .4-1 1s.4 1 1 1h2.1c.1.6.4 1.2.7 1.8l-1.5 1.4c-.3.3-.4.6-.3 1 .1.3.4.6.7.7s.7 0 1-.3l1.4-1.4c.5.4 1.1.6 1.8.7V15c0 .6.4 1 1 1s1-.4 1-1v-2.1c.6-.1 1.2-.4 1.8-.7l1.5 1.5c.4.4 1 .4 1.4 0 .4-.4.4-1 0-1.4l-1.5-1.5c.4-.5.6-1.1.7-1.8H15c.6 0 1-.4 1-1s-.4-1-1-1zM5 8c0-1.7 1.3-3 3-3s3 1.3 3 3-1.3 3-3 3-3-1.3-3-3z" fill="#818181"/></svg>