<?xml version="1.0" encoding="utf-8"?>
<!-- Generator: Adobe Illustrator 21.1.0, SVG Export Plug-In . SVG Version: 6.00 Build 0)  -->
<svg version="1.1" id="Layer_1" xmlns="http://www.w3.org/2000/svg" xmlns:xlink="http://www.w3.org/1999/xlink" x="0px" y="0px"
	 viewBox="0 0 16 16" style="enable-background:new 0 0 16 16;" xml:space="preserve">
<g id="Group-3" transform="translate(0.000000, 5.594100)">
	<g id="Clip-2">
	</g>
	<path fill="#fff" d="M13.2,0.7c0-0.3-0.2-0.5-0.5-0.5s-0.5,0.2-0.5,0.5c0,3-1.7,4.9-4.4,4.9c-2.7,0-4.4-1.9-4.4-4.9
		c0-0.3-0.2-0.5-0.5-0.5c-0.3,0-0.5,0.2-0.5,0.5c0,3.4,2,5.7,4.9,6c0,0,0,0.1,0,0.1v3c0,0.3,0.2,0.5,0.5,0.5c0.3,0,0.5-0.2,0.5-0.5
		v-3c0,0,0,0,0-0.1C11.3,6.4,13.2,4.1,13.2,0.7"/>
</g>
<g id="Group-6" transform="translate(2.000000, 0.594100)">
	<g id="Clip-5">
	</g>
	<defs>
		<filter id="Adobe_OpacityMaskFilter_1_" filterUnits="userSpaceOnUse" x="2.4" y="-0.5" width="6.6" height="10">
			<feColorMatrix  type="matrix" values="1 0 0 0 0  0 1 0 0 0  0 0 1 0 0  0 0 0 1 0"/>
		</filter>
	</defs>
	<mask maskUnits="userSpaceOnUse" x="2.4" y="-0.5" width="6.6" height="10" id="mask-4">
		<g fill="#fff">
			<polygon id="path-3" fill="#fff" points="2.4,-0.5 9.1,-0.5 9.1,9.5 2.4,9.5 			"/>
		</g>
	</mask>
	<path id="Fill-4" fill="#fff" d="M5.8,0.6c-1.3,0-2.2,1-2.2,2.2v3.4c0,1.2,1,2.2,2.2,2.2h0C7,8.4,8,7.4,8,6.2V2.8
		C8,1.6,7,0.6,5.8,0.6 M5.8,9.5L5.8,9.5C3.9,9.5,2.4,8,2.4,6.2V2.8c0-1.8,1.5-3.3,3.3-3.3c1.8,0,3.3,1.5,3.3,3.3v3.4
		C9.1,8,7.6,9.5,5.8,9.5"/>
</g>
</svg>
