<svg width="15" height="15" xmlns="http://www.w3.org/2000/svg"><g fill="none" fill-rule="evenodd"><path d="M7.463.6a6.77 6.77 0 00-6.77 6.77c0 .101.003.202.006.303a.802.802 0 00.104 1.598h.16a6.777 6.777 0 006.5 4.865A6.768 6.768 0 007.463.6" fill="#FFC048"/><path d="M10.831 5.023a.74.74 0 01.742.742v1.666c0 .411-.33.092-.742.092-.41 0-.742.316-.742-.092V5.765c0-.41.334-.742.742-.742" fill="#323B59"/><path d="M10.156 7.842a.234.234 0 01-.104-.442 1.774 1.774 0 011.555-.02.232.232 0 01.11.309.232.232 0 01-.31.11 1.31 1.31 0 00-1.147.016.213.213 0 01-.104.027" fill="orange"/><path d="M4.095 5.023a.74.74 0 01.742.742v1.666c0 .411-.331.092-.742.092s-.742.316-.742-.092V5.765c0-.41.334-.742.742-.742" fill="#323B59"/><path d="M3.42 7.842a.234.234 0 01-.104-.442 1.774 1.774 0 011.555-.02.232.232 0 01.11.309.232.232 0 01-.31.11 1.31 1.31 0 00-1.147.016.221.221 0 01-.104.027" fill="orange"/><path d="M12.046 9.315c-.157-.016-.313-.025-.467-.034a4.59 4.59 0 01-.337.073c-.227.031-.55.11-.935.148-.387.033-.841.104-1.323.125-.484.034-1 .04-1.518.046-.515-.009-1.034-.015-1.518-.049-.485-.024-.936-.092-1.322-.126-.387-.036-.712-.113-.936-.147a4.111 4.111 0 01-.337-.073c-.16.009-.316.021-.476.034a.104.104 0 00-.055.02.124.124 0 00-.028.17l.083.125c.19.289.38.537.574.746.19.215.38.399.574.57.38.338.763.586 1.147.795.104.055.208.095.313.14.582-.407 1.257.145 1.978.145.724 0 1.399-.549 1.982-.138.104-.046.205-.086.31-.138a6.259 6.259 0 001.72-1.371c.19-.209.383-.46.574-.749l.083-.129c.009-.018.018-.036.018-.058a.118.118 0 00-.104-.125" fill="#323B59"/><path d="M4.626 9.498c.386.034.84.102 1.322.126.484.034 1 .04 1.518.05.515-.01 1.034-.013 1.519-.047.484-.024.935-.092 1.321-.125.387-.037.712-.114.936-.148.178-.033.294-.061.337-.073-.226-.016-.454-.028-.678-.043l-1.147-.043c-.763-.025-1.527-.025-2.29-.037-.765.012-1.529.012-2.292.037l-1.147.043c-.224.015-.448.027-.672.043.04.01.16.04.337.073.224.031.55.108.936.145" fill="#FFF"/><path d="M14.22 7.67a6.732 6.732 0 00-1.859-4.966 6.954 6.954 0 01-9.567 9.567A6.766 6.766 0 0013.95 9.269h.16a.802.802 0 00.804-.803.79.79 0 00-.694-.795" fill="orange"/><path d="M9.438 11.888c.003 0 .003 0 .007-.003-.583-.408-1.261-.276-1.98-.187H7.46c-.718-.09-1.399-.221-1.979.187.004 0 .004.003.007.003-.003 0-.003.003-.007.003a4.81 4.81 0 001.948.43l.03.003h.007l.03-.003a4.81 4.81 0 001.949-.43c-.004-.003-.004-.003-.007-.003" fill="#FF7663"/></g></svg>