<?xml version="1.0" encoding="UTF-8"?>
<svg width="37px" height="67px" viewBox="0 0 37 67" version="1.1" xmlns="http://www.w3.org/2000/svg" xmlns:xlink="http://www.w3.org/1999/xlink">
    <title>Microphone - listening</title>
    <g id="Listening-tab" stroke="none" stroke-width="1" fill="none" fill-rule="evenodd">
        <g id="Listen-tab" transform="translate(-1719.000000, -552.000000)" fill-rule="nonzero">
            <g id="Wakeword-listening" transform="translate(1264.000000, 256.000000)">
                <g id="Listening-status" transform="translate(392.000000, 299.000000)">
                    <g id="Microphone---listening" transform="translate(63.000000, 0.000000)">
                        <path d="M18.2857143,45.7142857 C23.3351749,45.7142857 27.4285714,41.6208891 27.4285714,36.5714286 L27.4285714,9.14285714 C27.4285714,4.09339657 23.3351749,0 18.2857143,0 C13.2362537,0 9.14285714,4.09339657 9.14285714,9.14285714 L9.14285714,36.5714286 C9.14285714,41.6208891 13.2362537,45.7142857 18.2857143,45.7142857 Z" id="Path" stroke="#D70022" stroke-width="5"></path>
                        <path d="M36.5714286,36.5714286 L36.5714286,29.7142857 C36.5714286,28.4519206 35.5480794,27.4285714 34.2857143,27.4285714 C33.0233491,27.4285714 32,28.4519206 32,29.7142857 L32,36.5714286 C32,44.1456194 25.8599051,50.2857143 18.2857143,50.2857143 C10.7115234,50.2857143 4.57142857,44.1456194 4.57142857,36.5714286 L4.57142857,29.7142857 C4.57142857,28.4519206 3.54807943,27.4285714 2.28571429,27.4285714 C1.02334914,27.4285714 0,28.4519206 0,29.7142857 L0,36.5714286 C0.0311534521,44.8841674 5.66543936,52.1298591 13.7142857,54.208 L13.7142857,59.4285714 L6.85714286,59.4285714 C5.59477771,59.4285714 4.57142857,60.4519206 4.57142857,61.7142857 C4.57142857,62.9766509 5.59477771,64 6.85714286,64 L29.7142857,64 C30.9766509,64 32,62.9766509 32,61.7142857 C32,60.4519206 30.9766509,59.4285714 29.7142857,59.4285714 L22.8571429,59.4285714 L22.8571429,54.208 C30.9059892,52.1298591 36.5402751,44.8841674 36.5714286,36.5714286 Z" id="Path" fill="#D70022"></path>
                    </g>
                </g>
            </g>
        </g>
    </g>
</svg>