<?xml version="1.0" encoding="UTF-8"?>
<svg width="16px" height="10px" viewBox="0 0 16 10" version="1.1" xmlns="http://www.w3.org/2000/svg" xmlns:xlink="http://www.w3.org/1999/xlink">
    <title>Icon / Tab - 16</title>
    <g id="Listening-tab" stroke="none" stroke-width="1" fill="none" fill-rule="evenodd">
        <g id="Listen-tab" transform="translate(-1374.000000, -426.000000)" fill="#0C0C0D" fill-rule="nonzero">
            <g id="Wakeword-listening" transform="translate(1264.000000, 256.000000)">
                <g id="What's-this-tab?" transform="translate(95.000000, 152.000000)">
                    <g id="Shape" transform="translate(15.000000, 15.000000)">
                        <path d="M15,11 L14,11 L14,5 C14,3.8954305 13.1045695,3 12,3 L4,3 C2.8954305,3 2,3.8954305 2,5 L2,11 L1,11 C0.44771525,11 0,11.4477153 0,12 C0,12.5522847 0.44771525,13 1,13 L15,13 C15.5522847,13 16,12.5522847 16,12 C16,11.4477153 15.5522847,11 15,11 Z"></path>
                    </g>
                </g>
            </g>
        </g>
    </g>
</svg>