<svg width="120" height="120" viewbox="0 0 120 120" xmlns="http://www.w3.org/2000/svg" xmlns:xlink="http://www.w3.org/1999/xlink"><defs><circle id="a" cx="50.833" cy="50.833" r="50.25"/><linearGradient x1="3.084%" y1="49.368%" x2="100.592%" y2="49.368%" id="c"><stop stop-color="#6176B9" offset=".56%"/><stop stop-color="#394A9F" offset="69.1%"/></linearGradient><linearGradient x1="-.006%" y1="49.006%" x2="98.932%" y2="49.006%" id="d"><stop stop-color="#6176B9" offset=".56%"/><stop stop-color="#394A9F" offset="69.1%"/></linearGradient></defs><g fill="none" fill-rule="evenodd"><circle fill="#FFF" cx="60" cy="60" r="57.5"/><ellipse fill="#DE5833" cx="60" cy="60" rx="50.25" ry="50.25"/><path d="M60 120C26.917 120 0 93.083 0 60S26.917 0 60 0s60 26.917 60 60-26.917 60-60 60zM60 4.917C29.667 4.917 4.917 29.583 4.917 60c0 30.333 24.666 55.083 55.083 55.083 30.417 0 55.083-24.666 55.083-55.083 0-30.333-24.75-55.083-55.083-55.083z" fill="#DE5833"/><g transform="translate(9.167 9.167)"><mask id="b" fill="#fff"><use xlink:href="#a"/></mask><use fill="#DE5833" xlink:href="#a"/><g mask="url(#b)"><path d="M71.917 127.25c-1.75-8.25-12.25-27.167-16.334-35.083-3.916-7.917-7.916-19.084-6.083-26.417.417-1.417-3.333-11.417-2.333-12 8.5-5.5 10.666.583 14-1.75 1.75-1.167 4.166 1 4.75-1 2.166-7.667-2.917-20.917-8.834-26.583-2-2-4.75-3.167-8.083-3.75-1.167-1.75-3.333-3.334-6.083-4.917-3.167-1.75-10.25-3.917-13.834-4.5-2.583-.417-3.166.167-4.166.417 1 0 5.75 2.333 6.666 2.583-1 .583-3.583 0-5.333.75-.75.417-1.583 2-1.583 2.583 4.916-.583 12.583 0 17.166 2-3.583.417-9.083.75-11.416 2.167-6.917 3.583-9.834 12-8.084 22.25 1.75 10.083 9.834 47.083 12.25 59.333 2.584 12.25-5.5 20.334-10.416 22.5l5.5.417-1.75 3.917c6.5.75 13.833-1.417 13.833-1.417-1.417 3.917-11.25 5.5-11.25 5.5s4.75 1.417 12.25-1.417c7.667-2.916 12.25-4.75 12.25-4.75l7.5 9.417 2.917-6.917 6.916 7.25c-.25-.5 1.334-2.25-.416-10.583z" fill="#D5D7D8"/><path d="M74.083 125.5c-1.75-8.25-12.25-27.167-16.333-35.083C53.833 82.5 49.833 71.333 51.667 64c.416-1.417.416-6.667 1.416-7.5 8.5-5.5 7.917-.167 11.25-2.583 1.75-1.167 3.167-2.75 3.75-4.917 2.167-7.667-2.916-20.917-8.833-26.583-2-2-4.75-3.167-8.083-3.75-1.167-1.75-3.334-3.334-6.084-4.917-5.333-2.917-12-3.917-18.333-2.917 1 0 3.333 2.167 4.167 2.334-1.417 1-5.084.75-5.084 2.916 4.917-.416 10.25.167 15 2.334-3.583.416-6.916 1.416-9.25 2.583-6.916 3.583-8.666 10.833-6.916 20.917C26.417 52 34.5 89 36.917 101.25c2.583 12.25-5.5 20.333-10.417 22.5l5.5.417-1.75 3.916c6.5.75 13.833-1.416 13.833-1.416-1.416 3.916-11.25 5.5-11.25 5.5s4.75 1.416 12.25-1.417c7.667-2.917 12.25-4.75 12.25-4.75l3.584 9.417 6.916-6.917 2.917 7.25c-.417 0 5.083-1.75 3.333-10.25z" fill="#FFF"/><path d="M32.5 42.583c0-2.166 1.75-3.75 3.75-3.75 2.167 0 3.75 1.75 3.75 3.75 0 2.167-1.75 3.75-3.75 3.75-2.167 0-3.75-1.583-3.75-3.75z" fill="#2D4F8E"/><path d="M36.833 41.167c0-.584.417-1 1-1 .584 0 1 .416 1 1 0 .583-.416 1-1 1-.416 0-1-.417-1-1z" fill="#FFF"/><path d="M58.333 40.167c0-1.75 1.417-3.334 3.334-3.334 1.75 0 3.333 1.417 3.333 3.334 0 1.75-1.417 3.333-3.333 3.333-1.75.083-3.334-1.333-3.334-3.333z" fill="#2D4F8E"/><path d="M62.25 39.167c0-.417.417-.75.75-.75.417 0 .75.416.75.75 0 .416-.417.75-.75.75-.333.083-.75-.334-.75-.75z" fill="#FFF"/><path d="M15.583 21.5s-2.916-1.417-5.75.417c-2.75 1.75-2.75 3.583-2.75 3.583S5.5 22.167 9.417 20.583c4.416-1.583 6.166.917 6.166.917z" fill="url(#c)" transform="translate(21.667 10)"/><path d="M42 21.333s-2-1.166-3.75-1.166c-3.333 0-4.167 1.583-4.167 1.583s.584-3.583 4.75-2.75c2.334.167 3.167 2.333 3.167 2.333z" fill="url(#d)" transform="translate(21.667 10)"/><path d="M47.917 57.167c.416-2.334 6.333-6.667 10.416-6.917 4.167-.167 5.5-.167 9.084-1C71 48.5 80 46.083 82.583 44.917c2.584-1.167 13.167.583 5.75 4.75-3.166 1.75-12 5.083-18.333 7.083-6.333 1.75-10.083-1.75-12 1.417-1.583 2.333-.417 5.75 7.083 6.5 10.084 1 19.667-4.5 20.667-1.584 1 2.917-8.667 6.5-14.583 6.667-5.917.167-17.917-3.917-19.667-5.083-1.833-1.584-4.25-4.417-3.583-7.5z" fill="#FDD20A"/></g></g><path d="M61.583 94.917s-14.166-7.5-14.416-4.5C47 93.583 47.167 106 48.75 107c1.583 1 13.417-6.083 13.417-6.083l-.584-6zm5.5-.667S76.75 87 78.917 87.333c2.166.417 2.583 15.584.75 16.334-1.917.833-13-3.667-13-3.667l.416-5.75z" fill="#65BC46"/><path d="M58.25 95.667c0 4.916-.75 7.083 1.417 7.5 2.166.416 6.083 0 7.5-1 1.416-1 .166-7.25-.167-8.5-.667-1.167-8.75-.167-8.75 2z" fill="#43A244"/><path d="M59 94.5c0 4.917-.75 7.083 1.417 7.5 2.166.417 6.083 0 7.5-1 1.416-1 .166-7.25-.167-8.5-.5-1-8.75-.167-8.75 2z" fill="#65BC46"/></g></svg>