<svg height="24" viewBox="0 0 24 24" width="24" xmlns="http://www.w3.org/2000/svg"><g fill="#f9f9fa"><path d="m12 24c6.6168 0 12-5.3832 12-12s-5.3832-12-12-12-12 5.3832-12 12 5.3832 12 12 12zm0-23.2c6.1756 0 11.2 5.0244 11.2 11.2s-5.0244 11.2-11.2 11.2-11.2-5.0244-11.2-11.2 5.0244-11.2 11.2-11.2z"/><path d="m7.8 10.8c.9924 0 1.8-.8076 1.8-1.8s-.8076-1.8-1.8-1.8-1.8.8076-1.8 1.8.8076 1.8 1.8 1.8zm0-2.8c.5512 0 1 .4488 1 1s-.4488 1-1 1-1-.4488-1-1 .4488-1 1-1z"/><path d="m16.2 10.8c.9924 0 1.8-.8076 1.8-1.8s-.8076-1.8-1.8-1.8-1.8.8076-1.8 1.8.8076 1.8 1.8 1.8zm0-2.8c.5512 0 1 .4488 1 1s-.4488 1-1 1-1-.4488-1-1 .4488-1 1-1z"/><path d="m12 19.4512c2.8356 0 5.4144-1.3184 7.0744-3.6172l-.6484-.4684c-1.5084 2.088-3.85 3.2856-6.426 3.2856s-4.9176-1.1976-6.426-3.2856l-.6484.4684c1.66 2.2992 4.2388 3.6172 7.0744 3.6172z"/></g></svg>