<svg height="24" viewBox="0 0 24 24" width="24" xmlns="http://www.w3.org/2000/svg"><g fill="none"><circle cx="12" cy="12" r="12"/><g fill="#fff"><path d="m12 24c6.6168 0 12-5.3832 12-12s-5.3832-12-12-12-12 5.3832-12 12 5.3832 12 12 12zm0-23.2c6.1756 0 11.2 5.0244 11.2 11.2s-5.0244 11.2-11.2 11.2-11.2-5.0244-11.2-11.2 5.0244-11.2 11.2-11.2z"/><path d="m6.5564 16.4832.4876.634 1.228-.9444c2.1952-1.6888 5.2608-1.6888 7.4564 0l1.228.9444.4876-.634-1.228-.9444c-2.482-1.91-5.95-1.9096-8.4312 0z"/><path d="m8.4 9.6c1.1028 0 2-.8972 2-2v-.8h-4.8v.8h.8c0 1.1028.8972 2 2 2zm1.2-2c0 .6616-.5384 1.2-1.2 1.2s-1.2-.5384-1.2-1.2z"/><path d="m15.6 9.6c1.1028 0 2-.8972 2-2h.8v-.8h-4.8v.8c0 1.1028.8972 2 2 2zm1.2-2c0 .6616-.5384 1.2-1.2 1.2s-1.2-.5384-1.2-1.2z"/></g></g></svg>