<svg height="24" viewBox="0 0 24 24" width="24" xmlns="http://www.w3.org/2000/svg"><g fill="#0060DF"><path d="m9.6 8.6c0-.9924-.8076-1.8-1.8-1.8s-1.8.8076-1.8 1.8.8076 1.8 1.8 1.8 1.8-.8076 1.8-1.8zm-2.8 0c0-.5512.4488-1 1-1s1 .4488 1 1-.4488 1-1 1-1-.4488-1-1z"/><path d="m16.2 6.8c-.9924 0-1.8.8076-1.8 1.8s.8076 1.8 1.8 1.8 1.8-.8076 1.8-1.8-.8076-1.8-1.8-1.8zm0 2.8c-.5512 0-1-.4488-1-1s.4488-1 1-1 1 .4488 1 1-.4488 1-1 1z"/><path d="m12 0c-6.6168 0-12 5.3832-12 12s5.3832 12 12 12 12-5.3832 12-12-5.3832-12-12-12zm0 23.2c-6.1756 0-11.2-5.0244-11.2-11.2s5.0244-11.2 11.2-11.2 11.2 5.0244 11.2 11.2-5.0244 11.2-11.2 11.2z"/><path d="m7.784 15.5384-1.228.9444.488.6344 1.228-.9444c2.1952-1.6888 5.2616-1.6888 7.4564 0l1.228.9444.488-.6344-1.228-.9444c-2.4828-1.9084-5.9496-1.9092-8.4324 0z"/></g></svg>