<svg height="24" viewBox="0 0 24 24" width="24" xmlns="http://www.w3.org/2000/svg"><g fill="none"><circle cx="12" cy="12" r="12"/><g fill="#fff"><path d="m12 24c6.6168 0 12-5.3832 12-12s-5.3832-12-12-12-12 5.3832-12 12 5.3832 12 12 12zm0-23.2c6.1756 0 11.2 5.0244 11.2 11.2s-5.0244 11.2-11.2 11.2-11.2-5.0244-11.2-11.2 5.0244-11.2 11.2-11.2z"/><path d="m12 20.4c4.4112 0 8-3.5888 8-8h-.8c0 3.97-3.23 7.2-7.2 7.2s-7.2-3.23-7.2-7.2h-.8c0 4.4112 3.5888 8 8 8z"/><path d="m7.8 10.8c.9924 0 1.8-.8076 1.8-1.8s-.8076-1.8-1.8-1.8-1.8.8076-1.8 1.8.8076 1.8 1.8 1.8zm0-2.8c.5512 0 1 .4488 1 1s-.4488 1-1 1-1-.4488-1-1 .4488-1 1-1z"/><path d="m16.2 10.8c.9924 0 1.8-.8076 1.8-1.8s-.8076-1.8-1.8-1.8-1.8.8076-1.8 1.8.8076 1.8 1.8 1.8zm0-2.8c.5512 0 1 .4488 1 1s-.4488 1-1 1-1-.4488-1-1 .4488-1 1-1z"/></g></g></svg>