<svg height="20" viewBox="0 0 20 20" width="20" xmlns="http://www.w3.org/2000/svg" xmlns:xlink="http://www.w3.org/1999/xlink"><defs><path id="a" d="m3 6.75c.00782931 1.36157186.93163611 2.54712392 2.25 2.8875v.8625h-.375c-.62132034 0-1.125.3357864-1.125.75h4.5c0-.4142136-.50367966-.75-1.125-.75h-.375v-.8625c1.31836389-.34037608 2.24217069-1.52592814 2.25-2.8875v-1.5c0-.20710678-.16789322-.375-.375-.375s-.375.16789322-.375.375v1.5c0 1.24264069-1.00735931 2.25-2.25 2.25s-2.25-1.00735931-2.25-2.25v-1.5c0-.20710678-.16789322-.375-.375-.375s-.375.16789322-.375.375zm1.5 0c0 .82842712.67157288 1.5 1.5 1.5s1.5-.67157288 1.5-1.5v-4.5c0-.82842712-.67157288-1.5-1.5-1.5s-1.5.67157288-1.5 1.5z"/><mask id="b" fill="#fff"><use fill="#fff" fill-rule="evenodd" xlink:href="#a"/></mask></defs><g fill="none" fill-rule="evenodd" transform="translate(-3)"><path d="m0 0h12v12h-12z"/><g fill-rule="evenodd"><use fill="#30e60b" xlink:href="#a"/><g fill="#12bc00" mask="url(#b)"><path d="m0 0h12v12h-12z"/></g></g></g></svg>