<?xml version="1.0" encoding="UTF-8"?>
<svg width="24px" height="24px" viewBox="0 0 24 24" version="1.1" xmlns="http://www.w3.org/2000/svg" xmlns:xlink="http://www.w3.org/1999/xlink">
    <!-- Generator: Sketch 60.1 (88133) - https://sketch.com -->
    <title>Mic icon</title>
    <desc>Created with Sketch.</desc>
    <defs>
        <linearGradient x1="12.369774%" y1="139.62868%" x2="12.369774%" y2="14.1875835%" id="linearGradient-1">
            <stop stop-color="#FF9100" offset="0%"></stop>
            <stop stop-color="#F10366" offset="61.5587112%"></stop>
            <stop stop-color="#6173FF" offset="100%"></stop>
        </linearGradient>
        <linearGradient x1="52.6593641%" y1="0%" x2="52.6593641%" y2="100%" id="linearGradient-2">
            <stop stop-color="#F10366" offset="0%"></stop>
            <stop stop-color="#FF9100" offset="100%"></stop>
        </linearGradient>
    </defs>
    <g id="Mic-icon" stroke="none" stroke-width="1" fill="none" fill-rule="evenodd">
        <g id="Microphone" transform="translate(5.000000, 0.000000)" fill-rule="nonzero">
            <path d="M6.85714286,16.3928571 C8.33647701,16.3928571 9.53571429,15.1936199 9.53571429,13.7142857 L9.53571429,3.42857143 C9.53571429,1.94923728 8.33647701,0.75 6.85714286,0.75 C5.37780871,0.75 4.17857143,1.94923728 4.17857143,3.42857143 L4.17857143,13.7142857 C4.17857143,15.1936199 5.37780871,16.3928571 6.85714286,16.3928571 Z" id="Path" stroke="url(#linearGradient-1)" stroke-width="1.5"></path>
            <path d="M13.7142857,13.7142857 L13.7142857,11.1428571 C13.7142857,10.6694702 13.3305298,10.2857143 12.8571429,10.2857143 C12.3837559,10.2857143 12,10.6694702 12,11.1428571 L12,13.7142857 C12,16.5546073 9.69746443,18.8571429 6.85714286,18.8571429 C4.01682129,18.8571429 1.71428571,16.5546073 1.71428571,13.7142857 L1.71428571,11.1428571 C1.71428571,10.6694702 1.33052979,10.2857143 0.857142857,10.2857143 C0.383755929,10.2857143 0,10.6694702 0,11.1428571 L0,13.7142857 C0.0116825445,16.8315628 2.12453976,19.5486972 5.14285714,20.328 L5.14285714,22.2857143 L2.57142857,22.2857143 C2.09804164,22.2857143 1.71428571,22.6694702 1.71428571,23.1428571 C1.71428571,23.6162441 2.09804164,24 2.57142857,24 L11.1428571,24 C11.6162441,24 12,23.6162441 12,23.1428571 C12,22.6694702 11.6162441,22.2857143 11.1428571,22.2857143 L8.57142857,22.2857143 L8.57142857,20.328 C11.589746,19.5486972 13.7026032,16.8315628 13.7142857,13.7142857 Z" id="Path" fill="url(#linearGradient-2)"></path>
        </g>
    </g>
</svg>