<?xml version="1.0" encoding="utf-8"?>
<!-- Generator: Adobe Illustrator 21.1.0, SVG Export Plug-In . SVG Version: 6.00 Build 0)  -->
<svg version="1.1" id="Layer_1" xmlns="http://www.w3.org/2000/svg" xmlns:xlink="http://www.w3.org/1999/xlink" x="0px" y="0px"
	 viewBox="0 0 16 16" style="enable-background:new 0 0 16 16;" xml:space="preserve">
<style type="text/css">
	.st0{fill:#818181;}
</style>
<path id="Shape" class="st0" d="M9.1,8l3.5-3.5c0.3-0.3,0.3-0.8,0-1.1c-0.3-0.3-0.8-0.3-1.1,0L8,6.9L4.5,3.5
	C4.3,3.3,4.1,3.2,3.8,3.3C3.5,3.3,3.3,3.5,3.3,3.8c-0.1,0.3,0,0.5,0.2,0.7L6.9,8l-3.5,3.5c-0.2,0.2-0.3,0.5-0.2,0.7
	c0.1,0.3,0.3,0.5,0.5,0.5c0.3,0.1,0.5,0,0.7-0.2L8,9.1l3.5,3.5c0.3,0.3,0.8,0.3,1.1,0c0.3-0.3,0.3-0.8,0-1.1L9.1,8z"/>
</svg>
