<?xml version="1.0" encoding="utf-8"?>
<!-- Generator: Adobe Illustrator 21.1.0, SVG Export Plug-In . SVG Version: 6.00 Build 0)  -->
<svg version="1.1" id="Layer_1" xmlns="http://www.w3.org/2000/svg" xmlns:xlink="http://www.w3.org/1999/xlink" x="0px" y="0px"
	 viewBox="0 0 16 16" style="enable-background:new 0 0 16 16;" xml:space="preserve">
<g id="Visual" class="st0">
	<g id="Multiple-results-next" transform="translate(-846.000000, -221.000000)">
		<g id="Group" transform="translate(836.000000, 210.000000)">
			
				<g id="refresh-16" transform="translate(18.000000, 18.000000) scale(-1, 1) translate(-18.000000, -18.000000) translate(10.000000, 11.000000)">
				<path id="Shape" fill="#000" d="M14.5,1c-0.6,0-1,0.4-1,1v2.4c-1.7-2.9-5.3-4.2-8.5-3S0,5.9,0.6,9.3S4.1,15,7.5,15c1.9,0,3.6-0.7,4.9-2.1
					c0.4-0.4,0.4-1,0-1.4s-1-0.4-1.4,0c-1.5,1.6-3.9,2-5.9,0.9s-3-3.2-2.6-5.4S4.7,3.3,6.9,3S11.2,4,12,6H9.5c-0.6,0-1,0.4-1,1
					s0.4,1,1,1h5c0.6,0,1-0.4,1-1V2C15.5,1.4,15.1,1,14.5,1z"/>
			</g>
		</g>
	</g>
</g>
</svg>
