<?xml version="1.0" encoding="UTF-8"?>
<svg width="16px" height="14px" viewBox="0 0 16 14" version="1.1" xmlns="http://www.w3.org/2000/svg" xmlns:xlink="http://www.w3.org/1999/xlink">
    <!-- Generator: Sketch 45.2 (43514) - http://www.bohemiancoding.com/sketch -->
    <title>path-1_1_</title>
    <desc>Created with Sketch.</desc>
    <defs></defs>
    <g id="Page-1" stroke="none" stroke-width="1" fill="none" fill-rule="evenodd">
        <path d="M1,6 L12.6,6 L8.3,1.7 C7.9,1.3 7.9,0.7 8.3,0.3 C8.7,-0.1 9.3,-0.1 9.7,0.3 L15.7,6.3 C16.1,6.7 16.1,7.3 15.7,7.7 L9.7,13.7 C9.5,13.9 9.3,14 9,14 C8.7,14 8.5,13.9 8.3,13.7 C7.9,13.3 7.9,12.7 8.3,12.3 L12.6,8 L1,8 C0.4,8 0,7.6 0,7 C0,6.4 0.4,6 1,6 Z" id="path-1_1_" fill="#FFFFFF" fill-rule="nonzero"></path>
    </g>
</svg>