<?xml version="1.0" encoding="utf-8"?>
<!-- Generator: Adobe Illustrator 21.1.0, SVG Export Plug-In . SVG Version: 6.00 Build 0)  -->
<svg version="1.1" id="Layer_1" xmlns="http://www.w3.org/2000/svg" xmlns:xlink="http://www.w3.org/1999/xlink" x="0px" y="0px"
	 viewBox="0 0 16 16" style="enable-background:new 0 0 16 16;" xml:space="preserve">
<style type="text/css">
	.st0{fill:#818181;}
</style>
<path id="Shape" class="st0" d="M15,7h-2.1c-0.1-0.6-0.4-1.2-0.7-1.8l1.5-1.5c0.4-0.4,0.4-1,0-1.4s-1-0.4-1.4,0l-1.5,1.5
	C10.2,3.5,9.6,3.2,9,3.1V1c0-0.6-0.4-1-1-1S7,0.4,7,1v2.1C6.4,3.2,5.8,3.5,5.2,3.8L3.8,2.3C3.4,2,2.7,2,2.3,2.3s-0.4,1,0,1.4
	l1.5,1.5C3.5,5.8,3.2,6.4,3.1,7H1C0.4,7,0,7.4,0,8s0.4,1,1,1h2.1c0.1,0.6,0.4,1.2,0.7,1.8c0,0,0,0,0,0l-1.5,1.4
	c-0.3,0.3-0.4,0.6-0.3,1c0.1,0.3,0.4,0.6,0.7,0.7s0.7,0,1-0.3l1.4-1.4c0,0,0,0,0,0c0.5,0.4,1.1,0.6,1.8,0.7V15c0,0.6,0.4,1,1,1
	s1-0.4,1-1v-2.1c0.6-0.1,1.2-0.4,1.8-0.7l1.5,1.5c0.4,0.4,1,0.4,1.4,0c0.4-0.4,0.4-1,0-1.4l-1.5-1.5c0.4-0.5,0.6-1.1,0.7-1.8H15
	c0.6,0,1-0.4,1-1S15.6,7,15,7z M5,8c0-1.7,1.3-3,3-3s3,1.3,3,3s-1.3,3-3,3S5,9.7,5,8z"/>
</svg>
