<?xml version="1.0" encoding="utf-8"?>
<!-- Generator: Adobe Illustrator 21.1.0, SVG Export Plug-In . SVG Version: 6.00 Build 0)  -->
<svg version="1.1" id="Layer_1" xmlns="http://www.w3.org/2000/svg" xmlns:xlink="http://www.w3.org/1999/xlink" x="0px" y="0px"
	 viewBox="0 0 20 20" style="enable-background:new 0 0 20 20;" xml:space="preserve">
<style type="text/css">
	.st0{fill:#FFFFFF;}
</style>
<g id="Visual">
	<g id="Multiple-results-next" transform="translate(-909.000000, -218.000000)">
		<g id="Btn-go" transform="translate(895.000000, 203.000000)">
			<g id="Glyph---Win-10-_x2F_-Arrow---Forward---16" transform="translate(14.500000, 14.500000)">
				<g id="Arrow" transform="translate(8.000000, 8.000000) scale(-1, 1) translate(-8.000000, -8.000000) ">
					<path id="path-1_1_" class="st0" d="M2.5,9.5h11.6L9.8,5.2c-0.4-0.4-0.4-1,0-1.4c0.4-0.4,1-0.4,1.4,0l6,6c0.4,0.4,0.4,1,0,1.4
						l-6,6c-0.2,0.2-0.4,0.3-0.7,0.3s-0.5-0.1-0.7-0.3c-0.4-0.4-0.4-1,0-1.4l4.3-4.3H2.5c-0.6,0-1-0.4-1-1S1.9,9.5,2.5,9.5z"/>
				</g>
			</g>
		</g>
	</g>
</g>
</svg>
