<?xml version="1.0" encoding="UTF-8" standalone="no"?>
<svg width="15px" height="15px" viewBox="0 0 15 15" version="1.1" xmlns="http://www.w3.org/2000/svg" xmlns:xlink="http://www.w3.org/1999/xlink">
    <!-- Generator: Sketch 44.1 (41455) - http://www.bohemiancoding.com/sketch -->
    <title>Favicon</title>
    <desc>Created with Sketch.</desc>
    <defs></defs>
    <g id="Visual" stroke="none" stroke-width="1" fill="none" fill-rule="evenodd">
        <g id="7-Multiple-results-complete" transform="translate(-498.000000, -344.000000)">
            <g id="Favicon-/-Placeholder---Smile-face" transform="translate(498.000000, 344.000000)">
                <g id="Page-1" transform="translate(0.000000, 0.600000)">
                    <path d="M7.46305556,-2.77777778e-05 C3.72388889,-2.77777778e-05 0.693055556,3.03052778 0.693055556,6.76969444 C0.693055556,6.87108333 0.696388889,6.97219444 0.699444444,7.07330556 C0.306666667,7.12552778 0,7.45997222 0,7.86802778 C0,8.31275 0.358888889,8.67163889 0.803611111,8.67163889 L0.963333333,8.67163889 C1.78833333,11.4813611 4.38333333,13.5363611 7.46305556,13.5363611 C11.1991667,13.5363611 14.2297222,10.5058056 14.2297222,6.76969444 C14.2297222,3.03052778 11.1991667,-2.77777778e-05 7.46305556,-2.77777778e-05" id="Fill-1" fill="#FFC048"></path>
                    <path d="M10.8309722,4.42325 C11.2420833,4.42325 11.5731944,4.75436111 11.5731944,5.16547222 L11.5731944,6.83102778 C11.5731944,7.24213889 11.2420833,6.92325 10.8309722,6.92325 C10.4201389,6.92325 10.08875,7.23908333 10.08875,6.83102778 L10.08875,5.16547222 C10.08875,4.75436111 10.4229167,4.42325 10.8309722,4.42325" id="Fill-4" fill="#323B59"></path>
                    <path d="M10.1561944,7.24213889 C10.0703611,7.24213889 9.98758333,7.19602778 9.94758333,7.11325 C9.88925,6.99686111 9.93841667,6.85880556 10.0520278,6.80047222 C10.5489722,6.55491667 11.1161944,6.54575 11.6070278,6.77908333 C11.7236944,6.83408333 11.7725833,6.97213889 11.7175833,7.08880556 C11.6623056,7.20547222 11.52425,7.25436111 11.4075833,7.19908333 C11.0456389,7.02741667 10.6286944,7.03352778 10.2603611,7.21463889 C10.22675,7.23297222 10.1928611,7.24213889 10.1561944,7.24213889" id="Fill-6" fill="#FFA500"></path>
                    <path d="M4.095,4.42325 C4.50583333,4.42325 4.83722222,4.75436111 4.83722222,5.16547222 L4.83722222,6.83102778 C4.83722222,7.24213889 4.50583333,6.92325 4.095,6.92325 C3.68388889,6.92325 3.35277778,7.23908333 3.35277778,6.83102778 L3.35277778,5.16547222 C3.35277778,4.75436111 3.68694444,4.42325 4.095,4.42325" id="Fill-8" fill="#323B59"></path>
                    <path d="M3.42022222,7.24213889 C3.33411111,7.24213889 3.25161111,7.19602778 3.21161111,7.11325 C3.15327778,6.99686111 3.20244444,6.85880556 3.31605556,6.80047222 C3.81272222,6.55491667 4.38022222,6.54575 4.87105556,6.77908333 C4.98772222,6.83408333 5.03661111,6.97213889 4.98161111,7.08880556 C4.92633333,7.20547222 4.78827778,7.25436111 4.67161111,7.19908333 C4.30966667,7.02741667 3.89244444,7.03352778 3.52438889,7.21463889 C3.49077778,7.23297222 3.45383333,7.24213889 3.42022222,7.24213889" id="Fill-10" fill="#FFA500"></path>
                    <path d="M12.0457222,8.71458333 C11.8893333,8.69902778 11.7329444,8.69013889 11.5793333,8.68069444 C11.5365556,8.69291667 11.4198889,8.72069444 11.2421111,8.75430556 C11.0151667,8.78513889 10.6929444,8.86486111 10.3065556,8.90152778 C9.91988889,8.93541667 9.466,9.00597222 8.98433333,9.02736111 C8.49988889,9.06125 7.98433333,9.06736111 7.466,9.07347222 C6.95072222,9.06430556 6.43238889,9.05791667 5.94766667,9.02430556 C5.46294444,8.99986111 5.01211111,8.93236111 4.62572222,8.89847222 C4.23905556,8.86180556 3.91405556,8.78513889 3.69016667,8.75125 C3.51211111,8.71763889 3.39266667,8.69013889 3.35266667,8.67763889 C3.19322222,8.68680556 3.03683333,8.69902778 2.87738889,8.71152778 C2.85877778,8.71152778 2.84044444,8.72069444 2.82211111,8.73291667 C2.76988889,8.76986111 2.75766667,8.84652778 2.79433333,8.90152778 L2.87738889,9.02736111 C3.06738889,9.31569444 3.25766667,9.56430556 3.451,9.77291667 C3.641,9.98763889 3.83127778,10.1715278 4.02461111,10.3431944 C4.40488889,10.6806944 4.78822222,10.9293056 5.17155556,11.1379167 C5.276,11.1929167 5.38016667,11.2329167 5.48461111,11.27875 C6.06738889,10.8709722 6.74211111,11.4229167 7.46294444,11.4229167 C8.18683333,11.4229167 8.86183333,10.8740278 9.44461111,11.2848611 C9.54877778,11.2390278 9.64988889,11.1990278 9.75433333,11.1468056 C10.1348889,10.9354167 10.5179444,10.6898611 10.9015556,10.3495833 C11.0918333,10.1776389 11.2818333,9.99347222 11.4751667,9.77569444 C11.6654444,9.56736111 11.8585,9.31569444 12.0487778,9.02736111 L12.1315556,8.89847222 C12.1407222,8.88013889 12.1498889,8.86180556 12.1498889,8.84041667 C12.156,8.77875 12.1071111,8.72069444 12.0457222,8.71458333" id="Fill-12" fill="#323B59"></path>
                    <path d="M4.62561111,8.8985 C5.01227778,8.93238889 5.46616667,8.99988889 5.94783333,9.02433333 C6.43227778,9.05794444 6.94755556,9.06433333 7.46616667,9.0735 C7.98144444,9.06433333 8.49977778,9.061 8.9845,9.02738889 C9.46922222,9.00266667 9.92005556,8.93544444 10.3064444,8.90155556 C10.6931111,8.86488889 11.0181111,8.78822222 11.242,8.75433333 C11.4197778,8.72072222 11.5364444,8.69294444 11.5795,8.68072222 C11.3525556,8.66544444 11.1253333,8.65322222 10.9014444,8.63794444 L9.75422222,8.59488889 C8.99061111,8.57044444 8.22672222,8.57044444 7.46311111,8.55794444 C6.69922222,8.57044444 5.93533333,8.57044444 5.17172222,8.59488889 L4.0245,8.63794444 C3.80061111,8.65322222 3.57672222,8.66544444 3.35255556,8.68072222 C3.39255556,8.69016667 3.51227778,8.72072222 3.69005556,8.75433333 C3.91394444,8.78516667 4.23922222,8.86183333 4.62561111,8.8985" id="Fill-14" fill="#FFFFFF"></path>
                    <path d="M14.2204722,7.07041667 C14.2235278,6.96902778 14.2265833,6.86791667 14.2265833,6.76680556 C14.2265833,4.95986111 13.5179722,3.31569444 12.3615833,2.10430556 C13.0149167,3.16263889 13.3924167,4.41097222 13.3924167,5.74819444 C13.3924167,9.58875 10.2788056,12.7020833 6.43852778,12.7020833 C5.10102778,12.7020833 3.85575,12.3248611 2.79436111,11.6715278 C4.00908333,12.8279167 5.65019444,13.5365278 7.45686111,13.5365278 C10.5335278,13.5365278 13.1315833,11.48125 13.9504722,8.66847222 L14.1101944,8.66847222 C14.5549167,8.66847222 14.9138056,8.30958333 14.9138056,7.86486111 C14.9199167,7.45680556 14.6163056,7.12236111 14.2204722,7.07041667" id="Fill-18" fill="#FFA500"></path>
                    <path d="M9.43841667,11.2880833 C9.44147222,11.2880833 9.44147222,11.2880833 9.44452778,11.2850278 C8.86175,10.8769722 8.18369444,11.0089167 7.46591667,11.0978056 L7.46313889,11.0978056 L7.45980556,11.0978056 C6.74202778,11.0089167 6.06119444,10.8769722 5.48147222,11.2850278 C5.48452778,11.2850278 5.48452778,11.2880833 5.48758333,11.2880833 C5.48452778,11.2880833 5.48452778,11.2911389 5.48147222,11.2911389 C6.13175,11.5794722 6.77897222,11.7175278 7.42925,11.7205833 C7.43841667,11.7205833 7.45063889,11.7236389 7.45980556,11.7236389 L7.46313889,11.7236389 L7.46591667,11.7236389 C7.47536111,11.7236389 7.48758333,11.7205833 7.49675,11.7205833 C8.14702778,11.7175278 8.79425,11.5794722 9.44452778,11.2911389 C9.44147222,11.2880833 9.44147222,11.2880833 9.43841667,11.2880833" id="Fill-16" fill="#FF7663"></path>
                </g>
            </g>
        </g>
    </g>
</svg>