<svg preserveAspectRatio="none" viewBox="0 0 659 646" xmlns="http://www.w3.org/2000/svg" xmlns:xlink="http://www.w3.org/1999/xlink"><linearGradient id="a"><stop offset="0" stop-color="#722291"/><stop offset="1" stop-color="#fe298a"/></linearGradient><linearGradient id="b" x1="38.898305%" x2="38.898305%" xlink:href="#a" y1="-236.410256%" y2="288.717949%"/><linearGradient id="c" x1="35.701429%" x2="41.453294%" xlink:href="#a" y1="55.936485%" y2="26.049513%"/><linearGradient id="d"><stop offset="0" stop-color="#ff7139"/><stop offset="1" stop-color="#ff2a89"/></linearGradient><linearGradient id="e" x1="-117.711864%" x2="-117.711864%" xlink:href="#d" y1="-120.897436%" y2="404.230769%"/><linearGradient id="f" x1="77.872305%" x2="63.552949%" xlink:href="#d" y1="66.040941%" y2="53.804877%"/><mask id="g" fill="#fff"><path d="m23.9712809 0h624.2260961c5.965749 0 10.802623 5.60928849 10.802623 12.5284237v507.4541763l-458.507022-52.535524c-129.5585557-23.755771-217.8916022-165.044129-197.29910255-315.575958z" fill="#fff" fill-rule="evenodd"/></mask><mask id="h" fill="#fff"><path d="m23.9712809 0h624.2260961c5.965749 0 10.802623 5.60928849 10.802623 12.5284237v633.4931373l-458.507022-52.535524c-129.5585557-23.755771-217.8916022-291.08309-197.29910255-441.614919z" fill="#fff" fill-rule="evenodd"/></mask><mask id="i" fill="#fff"><path d="m520.083333 0c6.590184 0 11.933334 5.61032185 11.933334 12.5307317v529.6280823c-43.067049 60.401223-110.697866 100.500543-187.8963 103.33686-135.61935 4.982845-249.4096503-106.927553-254.159117-249.959277-3.4645128-104.400273-35.9767069-316.055119-89.0578628-395.536397z" fill="#fff" fill-rule="evenodd"/></mask><mask id="j" fill="#fff"><path d="m.9033872 0h519.1799458c6.590184 0 11.933334 5.61032185 11.933334 12.5307317v414.0833663c-43.067049 60.401224-110.697866 100.500544-187.8963 103.33686-135.61935 4.982846-249.4096503-106.927553-254.159117-249.959276-3.4645128-104.400273-35.9767069-200.510404-89.0578628-279.991682z" fill="#fff" fill-rule="evenodd"/></mask><mask id="k" fill="#fff"><path d="m627 0v583.598985l-374.429019 16.712672c-130.081354 10.695347-242.90010257-241.103135-251.98724118-393.914209-4.6886324-78.844945 19.15368618-152.2955198 61.20076808-206.397448z" fill="#fff" fill-rule="evenodd"/></mask><g fill="none" fill-rule="evenodd" transform="matrix(-1 0 0 1 659 0)"><path d="m-309.685189 610.760654h968.585165v-610.760654h-968.585165z" fill="url(#b)" mask="url(#g)"/><path d="m-309.685189 693.214286h968.585165v-693.214286h-968.585165z" fill="url(#c)" mask="url(#h)"/><path d="m-348.066667 664.907317h880.083334v-664.907317h-880.083334z" fill="url(#e)" mask="url(#i)" transform="translate(6)"/><path d="m-348.066667 610.873171h880.083334v-610.873171h-880.083334z" fill="url(#f)" mask="url(#j)" transform="translate(6)"/><path d="m-14-202.784965h641v864.725524h-641z" fill="#20123a" mask="url(#k)" transform="translate(32)"/></g></svg>