<svg preserveAspectRatio="none" viewBox="0 0 659 646" xmlns="http://www.w3.org/2000/svg" xmlns:xlink="http://www.w3.org/1999/xlink"><linearGradient id="a"><stop offset="0" stop-color="#722291"/><stop offset="1" stop-color="#fe298a"/></linearGradient><linearGradient id="c" x1="38.898%" x2="38.898%" xlink:href="#a" y1="-236.41%" y2="288.718%"/><linearGradient id="e" x1="35.701%" x2="41.453%" xlink:href="#a" y1="55.936%" y2="26.05%"/><linearGradient id="b"><stop offset="0" stop-color="#ff7139"/><stop offset="1" stop-color="#ff2a89"/></linearGradient><linearGradient id="g" x1="-117.712%" x2="-117.712%" xlink:href="#b" y1="-120.897%" y2="404.231%"/><linearGradient id="i" x1="77.872%" x2="63.553%" xlink:href="#b" y1="66.041%" y2="53.805%"/><mask id="d" fill="#fff"><path d="M23.971 0h624.226C654.163 0 659 5.61 659 12.528v507.455l-458.507-52.536C70.934 443.691-17.399 302.403 3.193 151.871z" fill-rule="evenodd"/></mask><mask id="f" fill="#fff"><path d="M23.971 0h624.226C654.163 0 659 5.61 659 12.528v633.494l-458.507-52.536C70.934 569.73-17.399 302.403 3.193 151.871z" fill-rule="evenodd"/></mask><mask id="h" fill="#fff"><path d="M520.083 0c6.59 0 11.934 5.61 11.934 12.53V542.16c-43.067 60.401-110.698 100.5-187.897 103.337-135.619 4.983-249.41-106.928-254.159-249.96C86.497 291.136 53.985 79.481.903 0z" fill-rule="evenodd"/></mask><mask id="j" fill="#fff"><path d="M.903 0h519.18c6.59 0 11.934 5.61 11.934 12.53v414.084c-43.067 60.401-110.698 100.5-187.897 103.337-135.619 4.983-249.41-106.928-254.159-249.96C86.497 175.592 53.985 79.482.903 0z" fill-rule="evenodd"/></mask><mask id="k" fill="#fff"><path d="M627 0v583.599l-374.429 16.713C122.49 611.007 9.671 359.209.584 206.397-4.105 127.553 19.737 54.102 61.784 0z" fill-rule="evenodd"/></mask><g fill="none" fill-rule="evenodd"><path d="M-309.685 610.76H658.9V0h-968.585z" fill="url(#c)" mask="url(#d)" transform="matrix(-1 0 0 1 659 0)"/><path d="M-309.685 693.214H658.9V0h-968.585z" fill="url(#e)" mask="url(#f)" transform="matrix(-1 0 0 1 659 0)"/><path d="M-348.067 664.907h880.084V0h-880.084z" fill="url(#g)" mask="url(#h)" transform="matrix(-1 0 0 1 653 0)"/><path d="M-348.067 610.873h880.084V0h-880.084z" fill="url(#i)" mask="url(#j)" transform="matrix(-1 0 0 1 653 0)"/><path d="M-14-202.785h641v864.726H-14z" fill="#20123a" mask="url(#k)" transform="matrix(-1 0 0 1 627 0)"/></g></svg>