<svg height="253" viewBox="0 0 156 253" width="156" xmlns="http://www.w3.org/2000/svg" xmlns:xlink="http://www.w3.org/1999/xlink"><linearGradient id="a" x1="79.256241%" x2="52.551301%" y1="61.791841%" y2="48.703496%"><stop offset="0" stop-color="#054096" stop-opacity=".5"/><stop offset=".0999519" stop-color="#173ba1" stop-opacity=".4422"/><stop offset=".2949" stop-color="#3434b3" stop-opacity=".3294"/><stop offset=".4888" stop-color="#482ec1" stop-opacity=".2171"/><stop offset=".6797" stop-color="#552bc8" stop-opacity=".1066"/><stop offset=".864" stop-color="#592acb" stop-opacity="0"/></linearGradient><linearGradient id="b"><stop offset="0" stop-color="#0090ed"/><stop offset=".6822" stop-color="#9059ff"/><stop offset="1" stop-color="#b833e1"/></linearGradient><linearGradient id="c" x1="6.29773%" x2="236.298666%" xlink:href="#b" y1="63.937471%" y2="-43.039847%"/><radialGradient id="d" cx="46.736775%" cy="79.384969%" gradientTransform="matrix(1 0 0 .990935 0 .007196)" r="68.282238%"><stop offset=".5051" stop-color="#592acb" stop-opacity="0"/><stop offset=".5752" stop-color="#502cc5" stop-opacity=".095573"/><stop offset=".6884" stop-color="#3833b6" stop-opacity=".25"/><stop offset=".83" stop-color="#123d9e" stop-opacity=".4429"/><stop offset=".8719" stop-color="#054096" stop-opacity=".5"/></radialGradient><linearGradient id="e" x1="9.244189%" x2="92.534189%" y1="64.283286%" y2="32.225792%"><stop offset=".02527695" stop-color="#e31587"/><stop offset=".1355" stop-color="#e51982"/><stop offset=".2648" stop-color="#ed2574"/><stop offset=".4033" stop-color="#f83a5c"/><stop offset=".4393" stop-color="#fc4055"/><stop offset=".5409" stop-color="#fd5650"/><stop offset=".7251" stop-color="#fe7947"/><stop offset=".8765" stop-color="#ff8e42"/><stop offset=".9754" stop-color="#ff9640"/></linearGradient><linearGradient id="f" x1="9.244189%" x2="92.534189%" y1="64.283286%" y2="32.225792%"><stop offset=".3712" stop-color="#fff36e" stop-opacity="0"/><stop offset=".9405" stop-color="#fff36e" stop-opacity=".8"/></linearGradient><linearGradient id="g" x1="-76.928716%" x2="86.953274%" xlink:href="#b" y1="110.976522%" y2="43.063585%"/><radialGradient id="h" cx="49.626207%" cy="49.086447%" gradientTransform="matrix(.956531 0 0 1 .021572 0)" r="56.97848%"><stop offset=".3906" stop-color="#722291" stop-opacity="0"/><stop offset=".8883" stop-color="#722291" stop-opacity=".5"/></radialGradient><linearGradient id="i" x1="11.631409%" x2="101.67552%" y1="41.149578%" y2="61.211815%"><stop offset=".001027141" stop-color="#54ffbd"/><stop offset="1" stop-color="#0df"/></linearGradient><g fill="none"><g fill="#20123a" transform="translate(8 175)"><path d="m0 2.12130196h20.229823v5.49842h-14.42688596v7.45762714h14.42688596v5.4554438h-14.42688596v11.9954036h-5.80293704zm27.1063537-2.12099971c1.874601.01151857 3.3849786 1.54882429 3.3735874 3.43366848-.0115206 1.8848442-1.5404718 3.40347476-3.4150729 3.39195634-.8948169.04178476-1.766284-.29433823-2.4037429-.92711844-.6374588-.63278021-.9828957-1.50462974-.9528087-2.40479768-.0327729-.92286969.3121345-1.81890553.9542829-2.4791336.6421484-.66022806 1.525397-1.026927 2.4437542-1.0145751zm-2.8536974 10.03493245h5.7199661v22.4891698h-5.7199661zm22.2990678 6.2467108c-.7922374-.6292576-1.7675862-.9804194-2.7770121-.9998277-2.3206719 0-3.6456927 1.4991095-3.6456927 4.7893134v12.4529733h-5.6860234v-22.4891698h5.4295678v3.2484919c.8297344-2.2111369 3.0014297-3.61533192 5.3465969-3.45705262 1.3587292-.00407274 2.6874111.40190572 3.8141488 1.16541222zm2.3634146 5.1217466c-.087791-3.1210542 1.0900827-6.1438963 3.263128-8.3743445 2.1730453-2.2304483 5.1545319-3.4768398 8.2597751-3.45294653 3.0679435-.13380281 6.05206 1.02675273 8.231921 3.20148413s3.3573657 5.1660039 3.2482396 8.2516615v2.3738007h-17.4138397c.5853999 2.9087371 3.2315643 4.9253293 6.1750491 4.7058891 2.3393306.0740747 4.5078257-1.2268278 5.5540243-3.3319161l4.7670574 2.8743464c-2.2989008 3.531419-6.295702 5.5628991-10.4870235 5.3303074-7.2524142 0-11.604617-4.8727377-11.604617-11.5782821zm5.6784806-2.5393853h11.7705589c-.5956017-2.7804679-3.1481081-4.6867909-5.9676218-4.4568802-2.7471598-.1019904-5.181697 1.7658051-5.8092227 4.4568802zm18.7313176-8.8290721h4.0228333v-1.12496405c0-6.12157426 2.5708419-8.6622235 8.2078371-8.6622235h1.9887882v4.95616202h-1.6229618c-2.6525557 0-3.2320951.91513933-3.2320951 3.70606148v1.12496405h4.8487712v5.1634588h-4.7243148v17.325711h-5.4723105v-17.325711h-4.0228333zm15.2943094 11.249641c-.0505161-3.1282721 1.1667247-6.142628 3.3718713-8.3500492 2.2051466-2.2074211 5.20847-3.41798275 8.3194884-3.35336941 4.187104-.04375382 8.074904 2.17716601 10.18112 5.81600151 2.106215 3.6388356 2.106215 8.1347345 0 11.7735701-2.106216 3.6388355-5.994016 5.8597553-10.18112 5.8160015-3.1260947.114798-6.1593648-1.0800529-8.3759634-3.2994181-2.2165986-2.2193653-3.417691-5.2641621-3.3166535-8.4077925zm17.8236657 0c-.108865-3.381104-2.904289-6.0440641-6.267995-5.9709812-3.3637055.0730828-6.0421114 2.8549722-6.0056138 6.2376485.0364977 3.3826763 2.7742969 6.1054868 6.1387878 6.1051798 1.662434-.0018405 3.2531-.6812735 4.40855-1.883056 1.155449-1.2017826 1.776951-2.8232255 1.7225-4.4938472zm13.262779-.252801-8.082124-10.99684h6.71436l4.767058 6.9128412 4.890257-6.9128412h6.59116l-8.207837 10.9525999 8.621435 11.5365699h-6.672875l-5.346597-7.3312266-5.180655 7.3312266h-6.67916z"/><path d="m13 46.7300646h3.6803767l10.0372775 26.1974801 9.9947732-26.1974801h3.7228811l-11.9612245 30.7942469h-3.5128596zm26.2664388 19.4058723c-.056798-4.8664547 2.7675655-9.2856981 7.1491909-11.1862424 4.3816254-1.9005442 9.4520086-.9056729 12.8344448 2.5182754s4.4064757 8.5982955 2.5921074 13.0976044c-1.8143683 4.499309-6.1075092 7.4317489-10.8670445 7.4227601-3.1004493.0527246-6.0907086-1.1751474-8.294391-3.4058753-2.2036823-2.2307278-3.4345943-5.2758329-3.4143076-8.4465222zm19.9895463 0c.0519387-3.0523917-1.5108731-5.8959223-4.0877547-7.4376555-2.5768816-1.5417331-5.7668001-1.5417331-8.3436817 0-2.5768816 1.5417332-4.1396934 4.3852638-4.0877546 7.4376555-.0519388 3.0523916 1.510873 5.8959222 4.0877546 7.4376554 2.5768816 1.5417331 5.7668001 1.5417331 8.3436817 0 2.5768816-1.5417332 4.1396934-4.3852638 4.0877547-7.4376554zm9.3284549-21.1354122c1.0850282-.0020689 2.064343.6646732 2.480968 1.6891055.4166251 1.0244323.1884412 2.2046331-.5780746 2.9898868-.7665157.7852538-1.9202785 1.0207824-2.9229096.5966814-1.0026311-.4241009-1.6565059-1.4242386-1.6565078-2.5337202-.0154633-.7310523.2613923-1.4369185.7665779-1.9544538.5051856-.5175352 1.1949776-.8019469 1.9099461-.7874997zm-1.7114252 9.7444809h3.4716054v22.7793059h-3.4716054zm7.609529 11.3909313c-.0232722-3.1868397 1.2182135-6.247126 3.4406994-8.4813904 2.2224859-2.2342645 5.2359976-3.4515261 8.3517577-3.3735638 4.5962776-.1123252 8.8058752 2.6183922 10.6648417 6.9181596l-3.136571 1.3920687c-1.2553642-3.12729-4.2656671-5.1400772-7.570775-5.062068-2.2272815-.0120065-4.3653596.8940896-5.9313428 2.5136438-1.5659833 1.6195542-2.427783 3.8159591-2.3907591 6.0931501-.0080805 2.2905025.8805065 4.4890758 2.4676195 6.1054711 1.587113 1.6163952 3.7407727 2.5161981 5.9807453 2.4987661 3.3330435-.0010134 6.3231957-2.0953902 7.5282706-5.2729874l3.1778253 1.3498848c-1.7768305 4.443733-6.0577609 7.2992247-10.7511005 7.1712629-3.1172434.0720065-6.1309549-1.1455692-8.3582181-3.3768209-2.2272633-2.2312517-3.4795157-5.2872789-3.472993-8.4755766zm25.2200817.0843678c-.0486762-3.2022652 1.1819635-6.2863235 3.4076155-8.539694 2.225652-2.2533706 5.253786-3.4811254 8.384842-3.399628 3.05858-.1241052 6.030814 1.0527665 8.210013 3.2507983 2.179198 2.1980318 3.370684 5.2208626 3.291164 8.3497742v1.5620826h-19.948292c.62242 3.693258 3.431174 6.5977716 7.035814 7.2756888 3.604639.6779172 7.240263-1.0146157 9.107088-4.2397263l2.92655 1.7295398c-2.195758 3.7532766-6.228061 5.9724272-10.501075 5.7791943-7.23074 0-11.9137195-5.1042519-11.9137195-11.7680297zm3.4278505-1.815186h16.352924c-.363889-4.1695519-3.901443-7.2892381-7.988317-7.0447113-4.102295-.0702088-7.647892 2.9145718-8.368357 7.0447113z"/></g><g transform="translate(0 -.477612)"><g transform="translate(73 82.477612)"><path d="m66.8.81904762h-63.4c-1.8 0-3.4 1.63809524-3.4 3.48095238v10.4428571c0 15.3571429 12.2 27.6428572 27 27.6428572h35c11.2 0 20.2-9.2142857 20.2-20.6809524v-9.0095238c.2-5.32380953-4.8-11.87619048-15.4-11.87619048z" fill="#008787"/><path d="m66.8.81904762h-63.4c-1.8 0-3.4 1.63809524-3.4 3.48095238v10.4428571c0 15.3571429 12.2 27.6428572 27 27.6428572h35c11.2 0 20.2-9.2142857 20.2-20.6809524v-9.0095238c.2-5.32380953-4.8-11.87619048-15.4-11.87619048z" fill="url(#a)" opacity=".9"/></g><g transform="translate(10.000907 72.443598)"><path d="m30.3892426 34.6653061c-.4000363.6081633-2.2001995 4.0544218-5.2004716 4.0544218s-4.6004173-3.6489796-4.8004354-3.8517007l-14.40130612-34.25986394-3.80034467 8.71700681c-2.40021769 6.48707483-2.40021769 13.37959183-.20001814 19.86666663l4.80043537 11.1496599c2.00018141 4.8653061 8.00072566 12.9741497 18.40166896 12.9741497 10.2009251 0 16.6015056-7.9061225 18.8017052-12.5687075v-.2027211l8.8007982-20.8802721-8.0007256-19.25850342z" fill="url(#c)"/><path d="m30.3892426 34.6653061c-.4000363.6081633-2.2001995 4.0544218-5.2004716 4.0544218s-4.6004173-3.6489796-4.8004354-3.8517007l-14.40130612-34.25986394-3.80034467 8.71700681c-2.40021769 6.48707483-2.40021769 13.37959183-.20001814 19.86666663l4.80043537 11.1496599c2.00018141 4.8653061 8.00072566 12.9741497 18.40166896 12.9741497 10.2009251 0 16.6015056-7.9061225 18.8017052-12.5687075v-.2027211l8.8007982-20.8802721-8.0007256-19.25850342z" fill="url(#d)"/></g><g transform="translate(0 19.736115)"><path d="m147.799891 50.6802721-10.800979-25.5428571c2.000181 6.4870748 2.000181 13.3795918-.400037 19.6639455l-3.800344 8.9197279-11.601053 27.5700681-5.000453 11.9605442 5.000453-11.7578231-9.400852 22.0965984c-.400036.608163-4.000363 7.50068-10.400943 7.50068-6.400581 0-9.4008531-6.892517-9.6008712-7.297959l-21.0019048-50.0721086-8.0007256-19.2585034-8.8007982-21.0829932c-2.0001814-4.86530609-8.0007256-12.97414962-18.4016689-12.97414962-10.2009252 0-16.6015057 7.90612245-18.8017052 12.56870752v.202721l-15.80143314 37.3006803c-.80007256 1.8244898-.80007256 4.0544218 0 5.8789116l10.80097964 25.7455782c-2.20019959-6.4870748-2.00018145-13.5823129.2000181-19.8666667l3.8003447-8.7170068 14.4013061-34.0571428c.4000363-.6081633 2.2001995-4.0544218 5.2004716-4.0544218 3.0002722 0 4.6004173 3.6489796 4.8004354 3.8517007l14.4013061 34.2598639 8.0007257 19.2585034 15.6014149 36.6925173c2.4002177 6.081632 10.2009252 16.623129 23.2021048 16.623129 13.001179 0 21.001904-10.136054 23.802158-16.217687v-.202721l22.60205-52.9102042c.800073-2.0272109.800073-4.0544218 0-6.0816327z" fill="url(#e)"/><path d="m147.799891 50.6802721-10.800979-25.5428571c2.000181 6.4870748 2.000181 13.3795918-.400037 19.6639455l-3.800344 8.9197279-11.601053 27.5700681-5.000453 11.9605442 5.000453-11.7578231-9.400852 22.0965984c-.400036.608163-4.000363 7.50068-10.400943 7.50068-6.400581 0-9.4008531-6.892517-9.6008712-7.297959l-21.0019048-50.0721086-8.0007256-19.2585034-8.8007982-21.0829932c-2.0001814-4.86530609-8.0007256-12.97414962-18.4016689-12.97414962-10.2009252 0-16.6015057 7.90612245-18.8017052 12.56870752v.202721l-15.80143314 37.3006803c-.80007256 1.8244898-.80007256 4.0544218 0 5.8789116l10.80097964 25.7455782c-2.20019959-6.4870748-2.00018145-13.5823129.2000181-19.8666667l3.8003447-8.7170068 14.4013061-34.0571428c.4000363-.6081633 2.2001995-4.0544218 5.2004716-4.0544218 3.0002722 0 4.6004173 3.6489796 4.8004354 3.8517007l14.4013061 34.2598639 8.0007257 19.2585034 15.6014149 36.6925173c2.4002177 6.081632 10.2009252 16.623129 23.2021048 16.623129 13.001179 0 21.001904-10.136054 23.802158-16.217687v-.202721l22.60205-52.9102042c.800073-2.0272109.800073-4.0544218 0-6.0816327z" fill="url(#f)"/></g><g transform="translate(62.005624 .477612)"><path d="m29.7891882 23.1102041c.4000363-.6081633 4.0003628-7.5006803 10.4009433-7.5006803s9.4008526 6.892517 9.6008708 7.2979592l21.0019047 49.8693877 3.8003447-8.9197278c2.4002177-6.0816327 2.4002177-12.9741497.4000363-19.4612245l-11.6010522-27.1646259c-2.4002177-6.0816326-10.2009251-16.62312924-23.2021043-16.62312924-13.0011791 0-21.0019047 10.13605444-23.8021587 16.21768704v.2027211l-15.60141498 36.692517 8.00072563 19.2585034z" fill="url(#g)"/><path d="m29.7891882 23.1102041c.4000363-.6081633 4.0003628-7.5006803 10.4009433-7.5006803s9.4008526 6.892517 9.6008708 7.2979592l21.0019047 49.8693877 3.8003447-8.9197278c2.4002177-6.0816327 2.4002177-12.9741497.4000363-19.4612245l-11.6010522-27.1646259c-2.4002177-6.0816326-10.2009251-16.62312924-23.2021043-16.62312924-13.0011791 0-21.0019047 10.13605444-23.8021587 16.21768704v.2027211l-15.60141498 36.692517 8.00072563 19.2585034z" fill="url(#h)"/></g><path d="m152.584296 96.9548847h-56.4595847c-15.069284 0-27.1247113 12.4772723-27.1247113 27.6136363v10.431818c0 1.840909 1.6073903 3.477273 3.4157044 3.477273h56.4595846c15.069284 0 27.124711-12.477273 27.124711-27.613636v-17.3863641c0 2.0454546-1.406467 3.4772728-3.415704 3.4772728z" fill="url(#i)"/><g fill="#20123a" transform="translate(87 110.477612)"><path d="m.2.2h6.8c3.8 0 5.8 1.8 5.8 4.4 0 2-1.4 3.2-3.2 3.6v.2c2 0 3.8 1.6 3.8 4.2 0 2.8-2 4.8-6 4.8h-7.4v-17.2zm6.4 7.2c1.4 0 2.6-.8 2.6-2.2 0-1.2-1-2-2.6-2h-2.8v4.2zm.2 7c2 0 3-.8 3-2.2s-1-2.4-2.8-2.4h-3v4.6z"/><path d="m15.2 11c0-4 2.4-6.6 6.2-6.6 3.4 0 6 2.2 6 6.6v1h-8.8c0 2 1.2 3.2 3 3.2 1.2 0 2.2-.6 2.4-1.4l3.4.2c-.6 2.4-2.6 4-5.8 4-4-.2-6.4-2.8-6.4-7zm9-1.2c0-1.6-1-2.6-2.6-2.6s-2.8 1.2-2.8 2.6z"/><path d="m36.8 7.2h-2.4v6.2c0 1 .4 1.2 1.2 1.2.4 0 .8 0 .8-.2l.6 2.6c-.4.2-1 .2-2 .4-2.6.2-4.4-1.2-4.4-3.6v-6.6h-1.6v-2.6h1.8v-3h3.6v3h2.4z"/><path d="m38.6 13.8c0-2.8 2.2-3.8 4.8-4 2.2-.2 3.2-.4 3.2-1.2 0-1-.6-1.6-2-1.6-1.2 0-2 .6-2.2 1.4l-3.4-.2c.4-2.4 2.6-3.8 5.6-3.8 2.8 0 5.4 1.2 5.4 4.4v8.8h-3.4v-1.8h-.2c-.6 1.2-1.8 2-3.8 2-2.2 0-4-1.4-4-4zm8-1v-1.4c-.4.2-1.8.4-2.4.6-1.2.2-2 .6-2 1.6s.8 1.4 1.8 1.4c1.4.2 2.6-.8 2.6-2.2z"/></g></g></g></svg>