<svg height="24" viewBox="0 0 24 24" width="24" xmlns="http://www.w3.org/2000/svg" xmlns:xlink="http://www.w3.org/1999/xlink"><linearGradient id="a" x1="50%" x2="50%" y1="0%" y2="100%"><stop offset="0" stop-color="#ff9100"/><stop offset="1" stop-color="#f10366"/></linearGradient><linearGradient id="b" x1="50%" x2="50%" y1="0%" y2="100%"><stop offset="0" stop-color="#6173ff"/><stop offset="1" stop-color="#f10366"/></linearGradient><g fill="none" fill-rule="evenodd" transform="translate(3)"><path d="m4.8 11.2367233c.4418278 0 .8.3581722.8.8v9.9791816l.1066697 1.7338593-1.66754421 1.0810064-.03682299-12.7940506c-.00126798-.4405562.35484545-.7987254.79540162-.7999934.00076529-.0000022.00153059-.0000033.00229588-.0000033z" fill="url(#a)" transform="matrix(.79863551 -.60181502 .60181502 .79863551 -9.875691 6.552166)"/><path d="m12.3854219-.4c.4418278 0 .8.3581722.8.8v23.2h-1.6v-23.2c0-.4418278.3581722-.8.8-.8z" fill="url(#b)" transform="matrix(.92718385 .37460659 -.37460659 .92718385 5.247295 -3.794993)"/></g></svg>