<?xml version="1.0" encoding="UTF-8"?>
<svg width="420px" height="252px" viewBox="0 0 420 252" version="1.1" xmlns="http://www.w3.org/2000/svg" xmlns:xlink="http://www.w3.org/1999/xlink">
    <!-- Generator: sketchtool 60.1 (101010) - https://sketch.com -->
    <title>DF8D7004-1393-43BD-BB18-4BA9261E06D9@1.00x</title>
    <desc>Created with sketchtool.</desc>
    <defs>
        <path d="M277.074305,11.2084283 C173.249618,10.9160881 2.22209711,323.977053 2.22209711,390.804894 C2.22209711,391.565778 1.75266415,392.182558 1.17355354,392.182558 C0.594442931,392.182558 0.125009977,391.565778 0.125009977,390.804894 C0.125009977,323.162716 172.865747,8.15841895 277.090348,8.45323895 L277.131765,1.33085614 C277.135435,0.695477712 277.530527,0.187611726 278.014115,0.187611726 C278.150006,0.187611726 278.283905,0.233409356 278.405012,0.314553739 L291.283329,8.93721216 C291.714175,9.2256949 291.885507,9.9185219 291.665942,10.4847416 C291.579857,10.7065455 291.441449,10.8856417 291.271271,10.9953037 L278.294181,19.3581348 C277.859979,19.6379383 277.335288,19.40222 277.122329,18.8317296 C277.062457,18.6713695 277.031839,18.4948908 277.032888,18.3163456 L277.074305,11.2084283 Z" id="path-1"></path>
    </defs>
    <g id="Onboarding" stroke="none" stroke-width="1" fill="none" fill-rule="evenodd">
        <g id="Step-3---Get-Started" transform="translate(-872.000000, -99.000000)">
            <g id="Content" transform="translate(1.000000, 59.000000)">
                <g id="Get-started" transform="translate(545.000000, 0.000000)">
                    <g id="Group-657" transform="translate(536.122981, 166.234520) scale(1, -1) rotate(84.000000) translate(-536.122981, -166.234520) translate(390.122981, -30.265480)">
                        <mask id="mask-2" fill="white">
                            <use xlink:href="#path-1"></use>
                        </mask>
                        <g id="Clip-656"></g>
                        <polygon id="Fill-655" fill="#AB71FF" mask="url(#mask-2)" points="23.6020455 -4.76680235 296.602045 -4.76680235 296.602045 205.233198 -23.0696254 439.284484"></polygon>
                    </g>
                </g>
            </g>
        </g>
    </g>
</svg>