<?xml version="1.0" encoding="UTF-8"?>
<svg width="381px" height="85px" viewBox="0 0 381 85" version="1.1" xmlns="http://www.w3.org/2000/svg" xmlns:xlink="http://www.w3.org/1999/xlink">
    <!-- Generator: sketchtool 60.1 (101010) - https://sketch.com -->
    <title>7FC445A2-8EC8-4839-A756-964963129A78@1.00x</title>
    <desc>Created with sketchtool.</desc>
    <defs>
        <linearGradient x1="79.2562406%" y1="61.2033224%" x2="52.5513013%" y2="48.7682029%" id="linearGradient-1">
            <stop stop-color="#054096" stop-opacity="0.5" offset="0%"></stop>
            <stop stop-color="#173BA1" stop-opacity="0.4422" offset="9.99519%"></stop>
            <stop stop-color="#3434B3" stop-opacity="0.3294" offset="29.49%"></stop>
            <stop stop-color="#482EC1" stop-opacity="0.2171" offset="48.88%"></stop>
            <stop stop-color="#552BC8" stop-opacity="0.1066" offset="67.97%"></stop>
            <stop stop-color="#592ACB" stop-opacity="0" offset="86.4%"></stop>
        </linearGradient>
        <linearGradient x1="6.29772977%" y1="63.9374713%" x2="236.298666%" y2="-43.0398467%" id="linearGradient-2">
            <stop stop-color="#0090ED" offset="0%"></stop>
            <stop stop-color="#9059FF" offset="68.22%"></stop>
            <stop stop-color="#B833E1" offset="100%"></stop>
        </linearGradient>
        <radialGradient cx="46.7367751%" cy="79.3849686%" fx="46.7367751%" fy="79.3849686%" r="68.2822378%" gradientTransform="translate(0.467368,0.793850),scale(1.000000,0.990935),translate(-0.467368,-0.793850)" id="radialGradient-3">
            <stop stop-color="#592ACB" stop-opacity="0" offset="50.51%"></stop>
            <stop stop-color="#502CC5" stop-opacity="0.0955733" offset="57.52%"></stop>
            <stop stop-color="#3833B6" stop-opacity="0.25" offset="68.84%"></stop>
            <stop stop-color="#123D9E" stop-opacity="0.4429" offset="83%"></stop>
            <stop stop-color="#054096" stop-opacity="0.5" offset="87.19%"></stop>
        </radialGradient>
        <linearGradient x1="9.24418919%" y1="64.2832863%" x2="92.5341892%" y2="32.2257916%" id="linearGradient-4">
            <stop stop-color="#E31587" offset="2.527695%"></stop>
            <stop stop-color="#E51982" offset="13.55%"></stop>
            <stop stop-color="#ED2574" offset="26.48%"></stop>
            <stop stop-color="#F83A5C" offset="40.33%"></stop>
            <stop stop-color="#FC4055" offset="43.93%"></stop>
            <stop stop-color="#FD5650" offset="54.09%"></stop>
            <stop stop-color="#FE7947" offset="72.51%"></stop>
            <stop stop-color="#FF8E42" offset="87.65%"></stop>
            <stop stop-color="#FF9640" offset="97.54%"></stop>
        </linearGradient>
        <linearGradient x1="9.24418919%" y1="64.2832863%" x2="92.5341892%" y2="32.2257916%" id="linearGradient-5">
            <stop stop-color="#FFF36E" stop-opacity="0" offset="37.12%"></stop>
            <stop stop-color="#FFF36E" stop-opacity="0.8" offset="94.05%"></stop>
        </linearGradient>
        <linearGradient x1="-76.9287162%" y1="110.976522%" x2="86.9532737%" y2="43.0635852%" id="linearGradient-6">
            <stop stop-color="#0090ED" offset="0%"></stop>
            <stop stop-color="#9059FF" offset="68.22%"></stop>
            <stop stop-color="#B833E1" offset="100%"></stop>
        </linearGradient>
        <radialGradient cx="49.6262073%" cy="49.0864471%" fx="49.6262073%" fy="49.0864471%" r="56.9784799%" gradientTransform="translate(0.496262,0.490864),scale(0.956531,1.000000),translate(-0.496262,-0.490864)" id="radialGradient-7">
            <stop stop-color="#722291" stop-opacity="0" offset="39.06%"></stop>
            <stop stop-color="#722291" stop-opacity="0.5" offset="88.83%"></stop>
        </radialGradient>
        <linearGradient x1="11.6314088%" y1="41.358123%" x2="101.67552%" y2="60.9476283%" id="linearGradient-8">
            <stop stop-color="#54FFBD" offset="0.1027141%"></stop>
            <stop stop-color="#00DDFF" offset="100%"></stop>
        </linearGradient>
    </defs>
    <g id="Onboarding" stroke="none" stroke-width="1" fill="none" fill-rule="evenodd">
        <g id="Step-3---Get-Started" transform="translate(-531.000000, -129.000000)">
            <g id="Content" transform="translate(1.000000, 59.000000)">
                <g id="Firefox-Voice-Logo" transform="translate(530.000000, 69.000000)">
                    <g>
                        <g id="Group" transform="translate(105.000000, 25.000000)" fill="#20123A" fill-rule="nonzero">
                            <g id="g-link" transform="translate(0.372000, 0.765000)">
                                <g id="g">
                                    <path d="M0,3.239 L21.427,3.239 L21.427,9.039 L6.147,9.039 L6.147,16.9 L21.427,16.9 L21.427,22.652 L6.147,22.652 L6.147,35.292 L0,35.292 L0,3.239 Z M28.716,1 C29.6761918,0.96867313 30.6059159,1.33936585 31.2811417,2.02275432 C31.9563675,2.7061428 32.3158621,3.64025394 32.273,4.6 C32.321078,5.56871969 31.9572575,6.51259481 31.2714262,7.19842617 C30.5855948,7.88425754 29.6417197,8.248078 28.673,8.2 C27.7245878,8.24412162 26.8009283,7.88967376 26.125503,7.22241586 C25.4500777,6.55515796 25.0844194,5.63587879 25.117,4.687 C25.0807565,3.71381206 25.445339,2.76836521 26.125597,2.07147401 C26.8058551,1.37458281 27.7422206,0.987271911 28.716,1 L28.716,1 Z M25.686,11.582 L31.746,11.582 L31.746,35.292 L25.686,35.292 L25.686,11.582 Z M49.309,18.168 C48.4698745,17.5045875 47.4365012,17.1343714 46.367,17.114 C43.908,17.114 42.503,18.695 42.503,22.164 L42.503,35.292 L36.488,35.292 L36.488,11.582 L42.24,11.582 L42.24,15.007 C43.1175702,12.6777086 45.4163315,11.1973226 47.9,11.362 C49.3394833,11.3579844 50.746977,11.7865035 51.94,12.592 L49.309,18.168 Z M51.809,23.568 C51.7169558,20.2789346 52.9651322,17.0936096 55.267217,14.7426887 C57.5693018,12.3917678 60.7277272,11.0770099 64.018,11.1 C71.131,11.1 76.181,16.149 76.181,23.175 L76.181,25.675 L57.739,25.675 C58.398,28.661 60.725,30.637 64.282,30.637 C66.7605548,30.7145117 69.0576745,29.3427997 70.165,27.124 L75.215,30.154 C72.715,33.842 69.156,35.774 64.106,35.774 C56.422,35.775 51.812,30.638 51.812,23.569 L51.809,23.568 Z M57.824,20.889 L70.3,20.889 C69.642,17.86 67.183,16.189 63.977,16.189 C61.0668157,16.0843917 58.4896696,18.054337 57.827,20.89 L57.824,20.889 Z M77.671,11.581 L81.93,11.581 L81.93,10.4 C81.93,3.946 84.652,1.267 90.624,1.267 L92.731,1.267 L92.731,6.489 L91.022,6.489 C88.212,6.489 87.597,7.455 87.597,10.396 L87.597,11.582 L92.734,11.582 L92.734,17.027 L87.734,17.027 L87.734,35.292 L81.934,35.292 L81.934,17.027 L77.674,17.027 L77.671,11.581 Z M93.871,23.436 C93.8167907,20.1390756 95.1061176,16.9619532 97.4425151,14.6351752 C99.7789126,12.3083972 102.961327,11.032189 106.258,11.1 C110.665943,11.0999999 114.73905,13.4516094 116.943022,17.2689999 C119.146993,21.0863904 119.146993,25.7896096 116.943022,29.6070001 C114.73905,33.4243906 110.665943,35.7760001 106.258,35.776 C102.946586,35.8949448 99.7342506,34.6346477 97.3871454,32.2956936 C95.0400403,29.9567394 93.7685757,26.7488075 93.876,23.437 L93.871,23.436 Z M112.751,23.436 C112.751,19.8461491 109.840851,16.936 106.251,16.936 C102.661149,16.936 99.751,19.8461491 99.751,23.436 C99.751,27.0258509 102.661149,29.936 106.251,29.936 C109.840851,29.936 112.751,27.0258509 112.751,23.436 L112.751,23.436 Z M126.802,23.173 L118.24,11.581 L125.353,11.581 L130.403,18.87 L135.584,11.581 L142.565,11.581 L133.876,23.13 L143.009,35.292 L135.94,35.292 L130.276,27.564 L124.787,35.292 L117.718,35.292 L126.802,23.173 Z" id="Shape"></path>
                                </g>
                            </g>
                            <g id="h-link" transform="translate(158.310000, 1.296000)">
                                <g id="h">
                                    <path d="M0,2.786 L3.90096,2.786 L14.539392,29.96144 L25.13448,2.786 L29.079792,2.786 L16.401168,34.7255 L12.677616,34.7255 L0,2.786 Z M27.839952,22.91684 C27.839952,16.1384698 33.4067002,10.643515 40.273632,10.643515 C47.1405638,10.643515 52.707312,16.1384698 52.707312,22.91684 C52.707312,29.6952102 47.1405638,35.190165 40.273632,35.190165 C33.4067002,35.190165 27.839952,29.6952102 27.839952,22.91684 L27.839952,22.91684 Z M49.02912,22.91684 C49.131983,19.7629847 47.486155,16.8042603 44.7350228,15.1972909 C41.9838906,13.5903215 38.5643814,13.5903215 35.8132492,15.1972909 C33.062117,16.8042603 31.416289,19.7629847 31.519152,22.91684 C31.4286635,26.0628544 33.0772804,29.0088828 35.8233111,30.6082414 C38.5693418,32.2076 41.9789302,32.2076 44.7249609,30.6082414 C47.4709916,29.0088828 49.1196085,26.0628544 49.02912,22.91684 L49.02912,22.91684 Z M58.915584,0.995 C59.6869229,0.971005351 60.433991,1.26286378 60.9797762,1.8014216 C61.5255613,2.33997943 61.8214943,3.07731061 61.797456,3.83871 C61.8168769,4.85965823 61.2762054,5.81136512 60.383583,6.32745354 C59.4909606,6.84354195 58.3855674,6.84354195 57.492945,6.32745354 C56.6003226,5.81136512 56.0596511,4.85965823 56.079072,3.83871 C56.0598971,3.08648138 56.3511181,2.35883525 56.8859466,1.82264956 C57.4207751,1.28646386 58.1533215,0.987744644 58.915584,0.995 Z M57.101184,11.10221 L60.7824,11.10221 L60.7824,34.730475 L57.1032,34.730475 L57.101184,11.10221 Z M65.166192,22.91684 C65.118716,19.6341756 66.4219075,16.4728364 68.7778444,14.1555349 C71.1337813,11.8382334 74.3410363,10.5630937 77.6664,10.621625 C82.5623002,10.5211457 87.0318253,13.3585361 88.970112,17.797565 L85.643712,19.24131 C84.3371774,16.0130508 81.1410957,13.9215673 77.620032,13.990695 C75.2430093,13.9943418 72.9677009,14.9430807 71.3078833,16.6226815 C69.6480658,18.3022823 68.7437099,20.5711059 68.799024,22.91684 C68.7747901,25.2763441 69.7078921,27.5473459 71.3903223,29.2235919 C73.0727524,30.8998379 75.3646502,31.8419817 77.755104,31.84 C81.3068938,31.8247314 84.4808809,29.6479009 85.734432,26.3675 L89.1072,27.773435 C87.2575169,32.3583492 82.7150598,35.3248483 77.7168,35.212055 C74.3880737,35.2663807 71.1781805,33.9915071 68.815191,31.6766022 C66.4522015,29.3616973 65.1363835,26.2029536 65.166192,22.91684 L65.166192,22.91684 Z M91.898352,23.0044 C91.8245085,19.7062834 93.116153,16.5210206 95.4750363,14.1841093 C97.8339196,11.847198 101.056099,10.5606816 104.397552,10.621625 C107.662487,10.5149805 110.826265,11.7483778 113.136282,14.0284139 C115.446298,16.30845 116.696072,19.4313239 116.588304,22.65416 L116.588304,24.278 L95.444496,24.278 C95.975712,28.784355 99.476496,31.978305 104.530608,31.978305 C107.876846,32.1424928 111.012459,30.364323 112.554288,27.42817 L115.656912,29.21917 C113.356833,33.095208 109.076324,35.4005802 104.5296,35.212055 C96.862752,35.212055 91.898352,29.91766 91.898352,23.0044 L91.898352,23.0044 Z M95.532192,21.122855 L112.864752,21.122855 C112.512805,16.8255972 108.758961,13.5859911 104.397552,13.815575 C100.023895,13.767392 96.2642962,16.8662442 95.532192,21.122855 L95.532192,21.122855 Z" id="Shape"></path>
                                </g>
                            </g>
                        </g>
                        <g id="Logo---Beta" transform="translate(0.000000, -0.000000)" fill-rule="nonzero">
                            <g id="Group" transform="translate(41.111111, 48.739635)">
                                <path d="M39.4603175,1.04545455 L2.56084656,1.04545455 C1.51322751,1.04545455 0.582010582,1.97474747 0.582010582,3.02020202 L0.582010582,8.94444444 C0.582010582,17.6565657 7.68253968,24.6262626 16.2962963,24.6262626 L36.6666667,24.6262626 C43.1851852,24.6262626 48.4232804,19.3989899 48.4232804,12.8939394 L48.4232804,7.78282828 C48.5396825,4.76262626 45.6296296,1.04545455 39.4603175,1.04545455 Z" id="Path" fill="#008787"></path>
                                <g opacity="0.9" fill="url(#linearGradient-1)" id="Path">
                                    <g>
                                        <path d="M39.4603175,1.04545455 L2.56084656,1.04545455 C1.51322751,1.04545455 0.582010582,1.97474747 0.582010582,3.02020202 L0.582010582,8.94444444 C0.582010582,17.6565657 7.68253968,24.6262626 16.2962963,24.6262626 L36.6666667,24.6262626 C43.1851852,24.6262626 48.4232804,19.3989899 48.4232804,12.8939394 L48.4232804,7.78282828 C48.5396825,4.76262626 45.6296296,1.04545455 39.4603175,1.04545455 Z"></path>
                                    </g>
                                </g>
                            </g>
                            <g id="Icon_80__x28_Full_Color_x29__25_" transform="translate(0.000000, 0.961857)">
                                <g id="Group">
                                    <g id="Path">
                                        <g transform="translate(5.777778, 42.162162)">
                                            <path d="M18.1422222,20.027027 C17.9111111,20.3783784 16.8711111,22.3693694 15.1377778,22.3693694 C13.4044444,22.3693694 12.48,20.2612613 12.3644444,20.1441441 L4.04444444,0.351351351 L1.84888889,5.38738739 C0.462222222,9.13513514 0.462222222,13.1171171 1.73333333,16.8648649 L4.50666667,23.3063063 C5.66222222,26.1171171 9.12888889,30.8018018 15.1377778,30.8018018 C21.0311111,30.8018018 24.7288889,26.2342342 26,23.5405405 C26,23.5405405 26,23.4234234 26,23.4234234 L31.0844444,11.3603604 L26.4622222,0.234234234 L18.1422222,20.027027 Z" fill="url(#linearGradient-2)"></path>
                                            <path d="M18.1422222,20.027027 C17.9111111,20.3783784 16.8711111,22.3693694 15.1377778,22.3693694 C13.4044444,22.3693694 12.48,20.2612613 12.3644444,20.1441441 L4.04444444,0.351351351 L1.84888889,5.38738739 C0.462222222,9.13513514 0.462222222,13.1171171 1.73333333,16.8648649 L4.50666667,23.3063063 C5.66222222,26.1171171 9.12888889,30.8018018 15.1377778,30.8018018 C21.0311111,30.8018018 24.7288889,26.2342342 26,23.5405405 C26,23.5405405 26,23.4234234 26,23.4234234 L31.0844444,11.3603604 L26.4622222,0.234234234 L18.1422222,20.027027 Z" fill="url(#radialGradient-3)"></path>
                                        </g>
                                        <g transform="translate(0.000000, 11.711712)">
                                            <path d="M85.9733333,29.2792793 L79.7333333,14.5225225 C80.8888889,18.2702703 80.8888889,22.2522523 79.5022222,25.8828829 L77.3066667,31.036036 L77.3066667,31.036036 L70.6044444,46.963964 L67.7155556,53.8738739 L70.6044444,47.0810811 L65.1733333,59.8468468 C64.9422222,60.1981982 62.8622222,64.1801802 59.1644444,64.1801802 C55.4666667,64.1801802 53.7333333,60.1981982 53.6177778,59.963964 L41.4844444,31.036036 L41.4844444,31.036036 L36.8622222,19.9099099 L36.8622222,19.9099099 L31.7777778,7.72972973 C30.6222222,4.91891892 27.1555556,0.234234234 21.1466667,0.234234234 C15.2533333,0.234234234 11.5555556,4.8018018 10.2844444,7.4954955 C10.2844444,7.4954955 10.2844444,7.61261261 10.2844444,7.61261261 L1.15555556,29.1621622 C0.693333333,30.2162162 0.693333333,31.5045045 1.15555556,32.5585586 L7.39555556,47.4324324 C6.12444444,43.6846847 6.24,39.5855856 7.51111111,35.954955 L9.70666667,30.9189189 L9.70666667,30.9189189 L18.0266667,11.2432432 C18.2577778,10.8918919 19.2977778,8.9009009 21.0311111,8.9009009 C22.7644444,8.9009009 23.6888889,11.009009 23.8044444,11.1261261 L32.1244444,30.9189189 L32.1244444,30.9189189 L36.7466667,42.045045 L36.7466667,42.045045 L45.76,63.2432432 C47.1466667,66.7567568 51.6533333,72.8468468 59.1644444,72.8468468 C66.6755556,72.8468468 71.2977778,66.990991 72.9155556,63.4774775 C72.9155556,63.4774775 72.9155556,63.3603604 72.9155556,63.3603604 L85.9733333,32.7927928 C86.4355556,31.6216216 86.4355556,30.4504505 85.9733333,29.2792793 Z" fill="url(#linearGradient-4)"></path>
                                            <path d="M85.9733333,29.2792793 L79.7333333,14.5225225 C80.8888889,18.2702703 80.8888889,22.2522523 79.5022222,25.8828829 L77.3066667,31.036036 L77.3066667,31.036036 L70.6044444,46.963964 L67.7155556,53.8738739 L70.6044444,47.0810811 L65.1733333,59.8468468 C64.9422222,60.1981982 62.8622222,64.1801802 59.1644444,64.1801802 C55.4666667,64.1801802 53.7333333,60.1981982 53.6177778,59.963964 L41.4844444,31.036036 L41.4844444,31.036036 L36.8622222,19.9099099 L36.8622222,19.9099099 L31.7777778,7.72972973 C30.6222222,4.91891892 27.1555556,0.234234234 21.1466667,0.234234234 C15.2533333,0.234234234 11.5555556,4.8018018 10.2844444,7.4954955 C10.2844444,7.4954955 10.2844444,7.61261261 10.2844444,7.61261261 L1.15555556,29.1621622 C0.693333333,30.2162162 0.693333333,31.5045045 1.15555556,32.5585586 L7.39555556,47.4324324 C6.12444444,43.6846847 6.24,39.5855856 7.51111111,35.954955 L9.70666667,30.9189189 L9.70666667,30.9189189 L18.0266667,11.2432432 C18.2577778,10.8918919 19.2977778,8.9009009 21.0311111,8.9009009 C22.7644444,8.9009009 23.6888889,11.009009 23.8044444,11.1261261 L32.1244444,30.9189189 L32.1244444,30.9189189 L36.7466667,42.045045 L36.7466667,42.045045 L45.76,63.2432432 C47.1466667,66.7567568 51.6533333,72.8468468 59.1644444,72.8468468 C66.6755556,72.8468468 71.2977778,66.990991 72.9155556,63.4774775 C72.9155556,63.4774775 72.9155556,63.3603604 72.9155556,63.3603604 L85.9733333,32.7927928 C86.4355556,31.6216216 86.4355556,30.4504505 85.9733333,29.2792793 Z" fill="url(#linearGradient-5)"></path>
                                        </g>
                                        <g transform="translate(35.822222, 0.000000)">
                                            <path d="M17.7955556,13.9369369 C18.0266667,13.5855856 20.1066667,9.6036036 23.8044444,9.6036036 C27.5022222,9.6036036 29.2355556,13.5855856 29.3511111,13.8198198 L41.4844444,42.6306306 L43.68,37.4774775 C45.0666667,33.963964 45.0666667,29.981982 43.9111111,26.2342342 L37.2088889,10.5405405 C35.8222222,7.02702703 31.3155556,0.936936937 23.8044444,0.936936937 C16.2933333,0.936936937 11.6711111,6.79279279 10.0533333,10.3063063 C10.0533333,10.3063063 10.0533333,10.4234234 10.0533333,10.4234234 L1.04,31.6216216 L5.66222222,42.7477477 L17.7955556,13.9369369 Z" fill="url(#linearGradient-6)"></path>
                                            <path d="M17.7955556,13.9369369 C18.0266667,13.5855856 20.1066667,9.6036036 23.8044444,9.6036036 C27.5022222,9.6036036 29.2355556,13.5855856 29.3511111,13.8198198 L41.4844444,42.6306306 L43.68,37.4774775 C45.0666667,33.963964 45.0666667,29.981982 43.9111111,26.2342342 L37.2088889,10.5405405 C35.8222222,7.02702703 31.3155556,0.936936937 23.8044444,0.936936937 C16.2933333,0.936936937 11.6711111,6.79279279 10.0533333,10.3063063 C10.0533333,10.3063063 10.0533333,10.4234234 10.0533333,10.4234234 L1.04,31.6216216 L5.66222222,42.7477477 L17.7955556,13.9369369 Z" fill="url(#radialGradient-7)"></path>
                                        </g>
                                    </g>
                                </g>
                            </g>
                            <path d="M88.0369515,57.3810493 L55.5889145,57.3810493 C46.9284065,57.3810493 40,64.4669079 40,73.0628675 L40,78.9871099 C40,80.0325645 40.9237875,80.9618574 41.9630485,80.9618574 L74.4110855,80.9618574 C83.0715935,80.9618574 90,73.8759988 90,65.2800392 L90,55.4063018 C90,56.567918 89.1916859,57.3810493 88.0369515,57.3810493 Z" id="Path" fill="url(#linearGradient-8)"></path>
                            <g id="Group" transform="translate(50.000000, 64.295191)" fill="#20123A">
                                <path d="M0.692307692,0.111111111 L4.61538462,0.111111111 C6.80769231,0.111111111 7.96153846,1.11111111 7.96153846,2.55555556 C7.96153846,3.66666667 7.15384615,4.33333333 6.11538462,4.55555556 L6.11538462,4.66666667 C7.26923077,4.66666667 8.30769231,5.55555556 8.30769231,7 C8.30769231,8.55555556 7.15384615,9.66666667 4.84615385,9.66666667 L0.576923077,9.66666667 L0.576923077,0.111111111 L0.692307692,0.111111111 Z M4.38461538,4.11111111 C5.19230769,4.11111111 5.88461538,3.66666667 5.88461538,2.88888889 C5.88461538,2.22222222 5.30769231,1.77777778 4.38461538,1.77777778 L2.76923077,1.77777778 L2.76923077,4.11111111 L4.38461538,4.11111111 Z M4.5,8 C5.65384615,8 6.23076923,7.55555556 6.23076923,6.77777778 C6.23076923,6 5.65384615,5.44444444 4.61538462,5.44444444 L2.88461538,5.44444444 L2.88461538,8 L4.5,8 Z" id="Shape"></path>
                                <path d="M9.34615385,6.11111111 C9.34615385,3.88888889 10.7307692,2.44444444 12.9230769,2.44444444 C14.8846154,2.44444444 16.3846154,3.66666667 16.3846154,6.11111111 L16.3846154,6.66666667 L11.3076923,6.66666667 L11.3076923,6.66666667 C11.3076923,7.77777778 12,8.44444444 13.0384615,8.44444444 C13.7307692,8.44444444 14.3076923,8.11111111 14.4230769,7.66666667 L16.3846154,7.77777778 C16.0384615,9.11111111 14.8846154,10 13.0384615,10 C10.7307692,9.88888889 9.34615385,8.44444444 9.34615385,6.11111111 Z M14.5384615,5.44444444 C14.5384615,4.55555556 13.9615385,4 13.0384615,4 C12.1153846,4 11.4230769,4.66666667 11.4230769,5.44444444 L14.5384615,5.44444444 Z" id="Shape"></path>
                                <path d="M21.8076923,4 L20.4230769,4 L20.4230769,7.44444444 C20.4230769,8 20.6538462,8.11111111 21.1153846,8.11111111 C21.3461538,8.11111111 21.5769231,8.11111111 21.5769231,8 L21.9230769,9.44444444 C21.6923077,9.55555556 21.3461538,9.55555556 20.7692308,9.66666667 C19.2692308,9.77777778 18.2307692,9 18.2307692,7.66666667 L18.2307692,4 L17.3076923,4 L17.3076923,2.55555556 L18.3461538,2.55555556 L18.3461538,0.888888889 L20.4230769,0.888888889 L20.4230769,2.55555556 L21.8076923,2.55555556 L21.8076923,4 Z" id="Path"></path>
                                <path d="M22.8461538,7.66666667 C22.8461538,6.11111111 24.1153846,5.55555556 25.6153846,5.44444444 C26.8846154,5.33333333 27.4615385,5.22222222 27.4615385,4.77777778 C27.4615385,4.22222222 27.1153846,3.88888889 26.3076923,3.88888889 C25.6153846,3.88888889 25.1538462,4.22222222 25.0384615,4.66666667 L23.0769231,4.55555556 C23.3076923,3.22222222 24.5769231,2.44444444 26.3076923,2.44444444 C27.9230769,2.44444444 29.4230769,3.11111111 29.4230769,4.88888889 L29.4230769,9.77777778 L27.4615385,9.77777778 L27.4615385,8.77777778 L27.3461538,8.77777778 C27,9.44444444 26.3076923,9.88888889 25.1538462,9.88888889 C23.8846154,9.88888889 22.8461538,9.11111111 22.8461538,7.66666667 Z M27.4615385,7.11111111 L27.4615385,6.33333333 C27.2307692,6.44444444 26.4230769,6.55555556 26.0769231,6.66666667 C25.3846154,6.77777778 24.9230769,7 24.9230769,7.55555556 C24.9230769,8.11111111 25.3846154,8.33333333 25.9615385,8.33333333 C26.7692308,8.44444444 27.4615385,7.88888889 27.4615385,7.11111111 Z" id="Shape"></path>
                            </g>
                        </g>
                    </g>
                </g>
            </g>
        </g>
    </g>
</svg>