<?xml version="1.0" encoding="UTF-8"?>
<svg width="26px" height="44px" viewBox="0 0 26 44" version="1.1" xmlns="http://www.w3.org/2000/svg" xmlns:xlink="http://www.w3.org/1999/xlink">
    <!-- Generator: sketchtool 60.1 (101010) - https://sketch.com -->
    <title>212E7029-31BD-45E2-8B09-D5A970ABCD73@1.00x</title>
    <desc>Created with sketchtool.</desc>
    <g id="Onboarding" stroke="none" stroke-width="1" fill="none" fill-rule="evenodd">
        <g id="Step-3---Get-Started" transform="translate(-441.000000, -719.000000)" fill="#000000" fill-rule="nonzero">
            <g id="Content" transform="translate(1.000000, 59.000000)">
                <g id="Examples" transform="translate(440.000000, 655.000000)">
                    <g id="Group-2">
                        <g id="noun_Superhero_12709" transform="translate(0.000000, 5.000000)">
                            <path d="M12.3812481,13.8388255 C5.03525377,22.1602035 0.160960162,27.2597538 0.160960162,27.2597538 L6.4594013,28.3081818 L12.3812481,13.8388255 Z" id="Path"></path>
                            <path d="M24.828105,18.8351514 C24.3627202,18.3369622 23.5793516,18.3098439 23.0798502,18.7774157 L20.284917,21.3873323 L20.4804311,17.1804985 C20.5110485,16.4977299 19.9831167,15.9186233 19.3016603,15.8871311 C19.1853141,15.8823198 19.0715923,15.8954415 18.9644313,15.9199354 L15.472733,14.6121341 L16.1659989,12.7226018 C16.4196861,13.5304643 16.997918,14.234665 17.8259006,14.6213193 C19.391763,15.357887 21.2589884,14.6821168 21.9942439,13.115817 C22.7294994,11.5495171 22.0554788,9.68316654 20.4878668,8.94747363 C19.4831779,8.47684011 18.3573316,8.58487587 17.4838602,9.13511468 L20.1681334,1.81580121 C20.4051997,1.17458492 20.0745316,0.463385937 19.4337526,0.22850657 C18.7916616,-0.00681018948 18.0804626,0.321671011 17.8460206,0.96288731 L12.7937086,14.7332916 C12.7858355,14.7551612 12.7783998,14.7779056 12.7727138,14.7997752 L8.40798152,25.2333179 L8.42372763,25.2425031 C8.37430236,25.3321684 8.32925101,25.4235833 8.29338489,25.5228712 L2.57842434,41.4067525 C2.23201008,42.3725134 2.73282363,43.4358128 3.69770982,43.7804775 C3.90459611,43.8565836 4.11673111,43.891575 4.32536697,43.891575 C5.08599122,43.891575 5.79893976,43.4200667 6.07187221,42.6629415 L11.7321588,26.9273361 L13.0290253,27.5873603 L10.1238693,32.5635661 C9.60599752,33.4475349 9.90517347,34.5851908 10.7895796,35.1026252 C11.0839442,35.2745202 11.4058645,35.3554377 11.7225362,35.3554377 C12.3615655,35.3554377 12.9822244,35.0256443 13.3273265,34.4356028 L17.5411586,27.2203886 C18.058593,26.3359825 17.7589797,25.1987639 16.8750109,24.6822043 C16.7367951,24.600412 16.5911437,24.5431137 16.4433053,24.5011241 L17.7983449,21.6160881 L17.6741257,24.3091091 C17.6505065,24.8116722 17.9356859,25.2783692 18.3905733,25.489192 C18.5567822,25.5652982 18.7348006,25.6033513 18.9093199,25.6033513 C19.2168063,25.6033513 19.5203562,25.489192 19.7547982,25.2700588 L24.7694946,20.5829688 C25.2685585,20.1171466 25.2939273,19.3346528 24.828105,18.8351514 Z" id="Path"></path>
                        </g>
                    </g>
                </g>
            </g>
        </g>
    </g>
</svg>