<?xml version="1.0" encoding="UTF-8"?>
<svg width="38px" height="38px" viewBox="0 0 38 38" version="1.1" xmlns="http://www.w3.org/2000/svg" xmlns:xlink="http://www.w3.org/1999/xlink">
    <!-- Generator: sketchtool 60.1 (101010) - https://sketch.com -->
    <title>8D23D415-338D-4626-B524-21720812662C@1.00x</title>
    <desc>Created with sketchtool.</desc>
    <defs>
        <path d="M28.875,2.625 C30.3247475,2.625 31.5,3.80025253 31.5,5.25 L31.5,5.25 L31.5,36.75 C31.5,38.1997475 30.3247475,39.375 28.875,39.375 C27.4252525,39.375 26.25,38.1997475 26.25,36.75 L26.25,36.75 L26.25,5.25 C26.25,3.80025253 27.4252525,2.625 28.875,2.625 Z M36.75,7.875 C38.1997475,7.875 39.375,9.05025253 39.375,10.5 L39.375,10.5 L39.375,31.5 C39.375,32.9497475 38.1997475,34.125 36.75,34.125 C35.3002525,34.125 34.125,32.9497475 34.125,31.5 L34.125,31.5 L34.125,10.5 C34.125,9.05025253 35.3002525,7.875 36.75,7.875 Z M13.125,10.5 C14.5747475,10.5 15.75,11.6752525 15.75,13.125 L15.75,13.125 L15.75,28.875 C15.75,30.3247475 14.5747475,31.5 13.125,31.5 C11.6752525,31.5 10.5,30.3247475 10.5,28.875 L10.5,28.875 L10.5,13.125 C10.5,11.6752525 11.6752525,10.5 13.125,10.5 Z M5.25,13.125 C6.69974747,13.125 7.875,14.3002525 7.875,15.75 L7.875,15.75 L7.875,26.25 C7.875,27.6997475 6.69974747,28.875 5.25,28.875 C3.80025253,28.875 2.625,27.6997475 2.625,26.25 L2.625,26.25 L2.625,15.75 C2.625,14.3002525 3.80025253,13.125 5.25,13.125 Z M21,15.75 C22.4497475,15.75 23.625,16.9252525 23.625,18.375 L23.625,18.375 L23.625,23.625 C23.625,25.0747475 22.4497475,26.25 21,26.25 C19.5502525,26.25 18.375,25.0747475 18.375,23.625 L18.375,23.625 L18.375,18.375 C18.375,16.9252525 19.5502525,15.75 21,15.75 Z" id="path-1"></path>
    </defs>
    <g id="Onboarding" stroke="none" stroke-width="1" fill="none" fill-rule="evenodd">
        <g id="Step-2---Opt-in" transform="translate(-249.000000, -409.000000)">
            <g id="Opt-in/out-panel" transform="translate(128.000000, 220.000000)">
                <g id="Private" transform="translate(119.000000, 181.000000)">
                    <g id="Title">
                        <g id="Icons-/-Narrate" transform="translate(0.000000, 6.000000)">
                            <g id="narrate">
                                <mask id="mask-2" fill="white">
                                    <use xlink:href="#path-1"></use>
                                </mask>
                                <g id="Combined-Shape" fill-rule="nonzero"></g>
                                <g id="Color-/-Photon-/-Black" mask="url(#mask-2)" fill="#000000">
                                    <rect id="Rectangle" x="0" y="0" width="42" height="42"></rect>
                                </g>
                            </g>
                        </g>
                    </g>
                </g>
            </g>
        </g>
    </g>
</svg>