<?xml version="1.0" encoding="UTF-8"?>
<svg width="12px" height="22px" viewBox="0 0 12 22" version="1.1" xmlns="http://www.w3.org/2000/svg" xmlns:xlink="http://www.w3.org/1999/xlink">
    <!-- Generator: sketchtool 60.1 (101010) - https://sketch.com -->
    <title>B23CDE62-FB18-4F48-ABF9-D6C168829E21@1.00x</title>
    <desc>Created with sketchtool.</desc>
    <defs>
        <path d="M6,13.5 C6.01565862,16.2231437 7.86327222,18.5942478 10.5,19.275 L10.5,21 L9.75,21 C8.50735931,21 7.5,21.6715729 7.5,22.5 L16.5,22.5 C16.5,21.6715729 15.4926407,21 14.25,21 L13.5,21 L13.5,19.275 C16.1367278,18.5942478 17.9843414,16.2231437 18,13.5 L18,10.5 C18,10.0857864 17.6642136,9.75 17.25,9.75 C16.8357864,9.75 16.5,10.0857864 16.5,10.5 L16.5,13.5 C16.5,15.9852814 14.4852814,18 12,18 C9.51471863,18 7.5,15.9852814 7.5,13.5 L7.5,10.5 C7.5,10.0857864 7.16421356,9.75 6.75,9.75 C6.33578644,9.75 6,10.0857864 6,10.5 L6,13.5 Z M9,13.5 C9,15.1568542 10.3431458,16.5 12,16.5 C13.6568542,16.5 15,15.1568542 15,13.5 L15,4.5 C15,2.84314575 13.6568542,1.5 12,1.5 C10.3431458,1.5 9,2.84314575 9,4.5 L9,13.5 Z" id="path-1"></path>
    </defs>
    <g id="Onboarding" stroke="none" stroke-width="1" fill="none" fill-rule="evenodd">
        <g id="Onboarding---Error-Pending-Permissions" transform="translate(-464.000000, -341.000000)">
            <g id="Error-overlay" transform="translate(121.000000, 229.000000)">
                <g id="Error-message" transform="translate(82.000000, 104.000000)">
                    <g id="Icons-/-32-/-Microphone---32" transform="translate(255.000000, 7.000000)">
                        <rect id="bouding-box" x="0" y="0" width="24" height="24"></rect>
                        <mask id="mask-2" fill="white">
                            <use xlink:href="#path-1"></use>
                        </mask>
                        <use id="Shape" fill="#D70022" fill-rule="evenodd" xlink:href="#path-1"></use>
                    </g>
                </g>
            </g>
        </g>
    </g>
</svg>