<?xml version="1.0" encoding="UTF-8"?>
<svg width="22px" height="40px" viewBox="0 0 22 40" version="1.1" xmlns="http://www.w3.org/2000/svg" xmlns:xlink="http://www.w3.org/1999/xlink">
    <!-- Generator: sketchtool 60.1 (101010) - https://sketch.com -->
    <title>4559FC28-098E-48B8-BB4B-30A05065C412@1.00x</title>
    <desc>Created with sketchtool.</desc>
    <defs>
        <path d="M11,24.75 C11.0287075,29.7424301 14.4159991,34.0894544 19.25,35.3375 L19.25,38.5 L17.875,38.5 C15.5968254,38.5 13.75,39.7312169 13.75,41.25 L30.25,41.25 C30.25,39.7312169 28.4031746,38.5 26.125,38.5 L24.75,38.5 L24.75,35.3375 C29.5840009,34.0894544 32.9712925,29.7424301 33,24.75 L33,19.25 C33,18.4906085 32.3843915,17.875 31.625,17.875 C30.8656085,17.875 30.25,18.4906085 30.25,19.25 L30.25,24.75 C30.25,29.3063492 26.5563492,33 22,33 C17.4436508,33 13.75,29.3063492 13.75,24.75 L13.75,19.25 C13.75,18.4906085 13.1343915,17.875 12.375,17.875 C11.6156085,17.875 11,18.4906085 11,19.25 L11,24.75 Z M16.5,24.75 C16.5,27.7875661 18.9624339,30.25 22,30.25 C25.0375661,30.25 27.5,27.7875661 27.5,24.75 L27.5,8.25 C27.5,5.21243388 25.0375661,2.75 22,2.75 C18.9624339,2.75 16.5,5.21243388 16.5,8.25 L16.5,24.75 Z" id="path-1"></path>
    </defs>
    <g id="Onboarding" stroke="none" stroke-width="1" fill="none" fill-rule="evenodd">
        <g id="Step-3---Get-Started" transform="translate(-596.000000, -330.000000)">
            <g id="Content" transform="translate(1.000000, 59.000000)">
                <g id="Get-started" transform="translate(545.000000, 0.000000)">
                    <g id="Headline" transform="translate(39.000000, 265.000000)">
                        <g id="Icons-/-32-/-Microphone---32" transform="translate(0.000000, 4.000000)">
                            <rect id="bouding-box" x="0" y="0" width="44" height="44"></rect>
                            <mask id="mask-2" fill="white">
                                <use xlink:href="#path-1"></use>
                            </mask>
                            <path stroke-opacity="0.3" stroke="#0C0C0D" stroke-width="1" d="M14.3443092,40.75 L29.6556908,40.75 C29.2858267,39.7785466 27.868548,39 26.125,39 L24.25,39 L24.25,34.9501948 L24.6250083,34.8533749 C29.2392819,33.6620587 32.4726057,29.5126264 32.5,24.75 L32.5,19.25 C32.5,18.7667508 32.1082492,18.375 31.625,18.375 C31.1417508,18.375 30.75,18.7667508 30.75,19.25 L30.75,24.75 C30.75,29.5824916 26.8324916,33.5 22,33.5 C17.1675084,33.5 13.25,29.5824916 13.25,24.75 L13.25,19.25 C13.25,18.7667508 12.8582492,18.375 12.375,18.375 C11.8917508,18.375 11.5,18.7667508 11.5,19.25 L11.5,24.75 L11.4999917,24.7471249 C11.5273943,29.5126264 14.7607181,33.6620587 19.3749917,34.8533749 L19.75,34.9501948 L19.75,39 L17.875,39 C16.131452,39 14.7141733,39.7785466 14.3443092,40.75 Z M17,24.75 C17,27.5114237 19.2385763,29.75 22,29.75 C24.7614237,29.75 27,27.5114237 27,24.75 L27,8.25 C27,5.48857625 24.7614237,3.25 22,3.25 C19.2385763,3.25 17,5.48857625 17,8.25 L17,24.75 Z"></path>
                            <g id="Color-/-Photon-/-Black" mask="url(#mask-2)" fill="#000000" fill-rule="evenodd">
                                <rect id="Rectangle" x="0" y="0" width="44" height="44"></rect>
                            </g>
                        </g>
                    </g>
                </g>
            </g>
        </g>
    </g>
</svg>